LibreDotMatrix-Print.ufo
<glyph name="dollar" format="2">
  <advance width="600"/>
  <unicode hex="0024"/>
  <outline>
    <contour>
      <point x="252" y="650" type="curve" smooth="yes"/>
      <point x="252" y="676"/>
      <point x="274" y="698"/>
      <point x="300" y="698" type="curve" smooth="yes"/>
      <point x="326" y="698"/>
      <point x="348" y="676"/>
      <point x="348" y="650" type="curve" smooth="yes"/>
      <point x="348" y="624"/>
      <point x="326" y="602"/>
      <point x="300" y="602" type="curve" smooth="yes"/>
      <point x="274" y="602"/>
      <point x="252" y="624"/>
    </contour>
    <contour>
      <point x="152" y="550" type="curve" smooth="yes"/>
      <point x="152" y="576"/>
      <point x="174" y="598"/>
      <point x="200" y="598" type="curve" smooth="yes"/>
      <point x="226" y="598"/>
      <point x="248" y="576"/>
      <point x="248" y="550" type="curve" smooth="yes"/>
      <point x="248" y="524"/>
      <point x="226" y="502"/>
      <point x="200" y="502" type="curve" smooth="yes"/>
      <point x="174" y="502"/>
      <point x="152" y="524"/>
    </contour>
    <contour>
      <point x="252" y="550" type="curve" smooth="yes"/>
      <point x="252" y="576"/>
      <point x="274" y="598"/>
      <point x="300" y="598" type="curve" smooth="yes"/>
      <point x="326" y="598"/>
      <point x="348" y="576"/>
      <point x="348" y="550" type="curve" smooth="yes"/>
      <point x="348" y="524"/>
      <point x="326" y="502"/>
      <point x="300" y="502" type="curve" smooth="yes"/>
      <point x="274" y="502"/>
      <point x="252" y="524"/>
    </contour>
    <contour>
      <point x="352" y="550" type="curve" smooth="yes"/>
      <point x="352" y="576"/>
      <point x="374" y="598"/>
      <point x="400" y="598" type="curve" smooth="yes"/>
      <point x="426" y="598"/>
      <point x="448" y="576"/>
      <point x="448" y="550" type="curve" smooth="yes"/>
      <point x="448" y="524"/>
      <point x="426" y="502"/>
      <point x="400" y="502" type="curve" smooth="yes"/>
      <point x="374" y="502"/>
      <point x="352" y="524"/>
    </contour>
    <contour>
      <point x="452" y="550" type="curve" smooth="yes"/>
      <point x="452" y="576"/>
      <point x="474" y="598"/>
      <point x="500" y="598" type="curve" smooth="yes"/>
      <point x="526" y="598"/>
      <point x="548" y="576"/>
      <point x="548" y="550" type="curve" smooth="yes"/>
      <point x="548" y="524"/>
      <point x="526" y="502"/>
      <point x="500" y="502" type="curve" smooth="yes"/>
      <point x="474" y="502"/>
      <point x="452" y="524"/>
    </contour>
    <contour>
      <point x="52" y="450" type="curve" smooth="yes"/>
      <point x="52" y="476"/>
      <point x="74" y="498"/>
      <point x="100" y="498" type="curve" smooth="yes"/>
      <point x="126" y="498"/>
      <point x="148" y="476"/>
      <point x="148" y="450" type="curve" smooth="yes"/>
      <point x="148" y="424"/>
      <point x="126" y="402"/>
      <point x="100" y="402" type="curve" smooth="yes"/>
      <point x="74" y="402"/>
      <point x="52" y="424"/>
    </contour>
    <contour>
      <point x="252" y="450" type="curve" smooth="yes"/>
      <point x="252" y="476"/>
      <point x="274" y="498"/>
      <point x="300" y="498" type="curve" smooth="yes"/>
      <point x="326" y="498"/>
      <point x="348" y="476"/>
      <point x="348" y="450" type="curve" smooth="yes"/>
      <point x="348" y="424"/>
      <point x="326" y="402"/>
      <point x="300" y="402" type="curve" smooth="yes"/>
      <point x="274" y="402"/>
      <point x="252" y="424"/>
    </contour>
    <contour>
      <point x="152" y="350" type="curve" smooth="yes"/>
      <point x="152" y="376"/>
      <point x="174" y="398"/>
      <point x="200" y="398" type="curve" smooth="yes"/>
      <point x="226" y="398"/>
      <point x="248" y="376"/>
      <point x="248" y="350" type="curve" smooth="yes"/>
      <point x="248" y="324"/>
      <point x="226" y="302"/>
      <point x="200" y="302" type="curve" smooth="yes"/>
      <point x="174" y="302"/>
      <point x="152" y="324"/>
    </contour>
    <contour>
      <point x="252" y="350" type="curve" smooth="yes"/>
      <point x="252" y="376"/>
      <point x="274" y="398"/>
      <point x="300" y="398" type="curve" smooth="yes"/>
      <point x="326" y="398"/>
      <point x="348" y="376"/>
      <point x="348" y="350" type="curve" smooth="yes"/>
      <point x="348" y="324"/>
      <point x="326" y="302"/>
      <point x="300" y="302" type="curve" smooth="yes"/>
      <point x="274" y="302"/>
      <point x="252" y="324"/>
    </contour>
    <contour>
      <point x="352" y="350" type="curve" smooth="yes"/>
      <point x="352" y="376"/>
      <point x="374" y="398"/>
      <point x="400" y="398" type="curve" smooth="yes"/>
      <point x="426" y="398"/>
      <point x="448" y="376"/>
      <point x="448" y="350" type="curve" smooth="yes"/>
      <point x="448" y="324"/>
      <point x="426" y="302"/>
      <point x="400" y="302" type="curve" smooth="yes"/>
      <point x="374" y="302"/>
      <point x="352" y="324"/>
    </contour>
    <contour>
      <point x="252" y="250" type="curve" smooth="yes"/>
      <point x="252" y="276"/>
      <point x="274" y="298"/>
      <point x="300" y="298" type="curve" smooth="yes"/>
      <point x="326" y="298"/>
      <point x="348" y="276"/>
      <point x="348" y="250" type="curve" smooth="yes"/>
      <point x="348" y="224"/>
      <point x="326" y="202"/>
      <point x="300" y="202" type="curve" smooth="yes"/>
      <point x="274" y="202"/>
      <point x="252" y="224"/>
    </contour>
    <contour>
      <point x="452" y="250" type="curve" smooth="yes"/>
      <point x="452" y="276"/>
      <point x="474" y="298"/>
      <point x="500" y="298" type="curve" smooth="yes"/>
      <point x="526" y="298"/>
      <point x="548" y="276"/>
      <point x="548" y="250" type="curve" smooth="yes"/>
      <point x="548" y="224"/>
      <point x="526" y="202"/>
      <point x="500" y="202" type="curve" smooth="yes"/>
      <point x="474" y="202"/>
      <point x="452" y="224"/>
    </contour>
    <contour>
      <point x="52" y="150" type="curve" smooth="yes"/>
      <point x="52" y="176"/>
      <point x="74" y="198"/>
      <point x="100" y="198" type="curve" smooth="yes"/>
      <point x="126" y="198"/>
      <point x="148" y="176"/>
      <point x="148" y="150" type="curve" smooth="yes"/>
      <point x="148" y="124"/>
      <point x="126" y="102"/>
      <point x="100" y="102" type="curve" smooth="yes"/>
      <point x="74" y="102"/>
      <point x="52" y="124"/>
    </contour>
    <contour>
      <point x="152" y="150" type="curve" smooth="yes"/>
      <point x="152" y="176"/>
      <point x="174" y="198"/>
      <point x="200" y="198" type="curve" smooth="yes"/>
      <point x="226" y="198"/>
      <point x="248" y="176"/>
      <point x="248" y="150" type="curve" smooth="yes"/>
      <point x="248" y="124"/>
      <point x="226" y="102"/>
      <point x="200" y="102" type="curve" smooth="yes"/>
      <point x="174" y="102"/>
      <point x="152" y="124"/>
    </contour>
    <contour>
      <point x="252" y="150" type="curve" smooth="yes"/>
      <point x="252" y="176"/>
      <point x="274" y="198"/>
      <point x="300" y="198" type="curve" smooth="yes"/>
      <point x="326" y="198"/>
      <point x="348" y="176"/>
      <point x="348" y="150" type="curve" smooth="yes"/>
      <point x="348" y="124"/>
      <point x="326" y="102"/>
      <point x="300" y="102" type="curve" smooth="yes"/>
      <point x="274" y="102"/>
      <point x="252" y="124"/>
    </contour>
    <contour>
      <point x="352" y="150" type="curve" smooth="yes"/>
      <point x="352" y="176"/>
      <point x="374" y="198"/>
      <point x="400" y="198" type="curve" smooth="yes"/>
      <point x="426" y="198"/>
      <point x="448" y="176"/>
      <point x="448" y="150" type="curve" smooth="yes"/>
      <point x="448" y="124"/>
      <point x="426" y="102"/>
      <point x="400" y="102" type="curve" smooth="yes"/>
      <point x="374" y="102"/>
      <point x="352" y="124"/>
    </contour>
    <contour>
      <point x="252" y="50" type="curve" smooth="yes"/>
      <point x="252" y="76"/>
      <point x="274" y="98"/>
      <point x="300" y="98" type="curve" smooth="yes"/>
      <point x="326" y="98"/>
      <point x="348" y="76"/>
      <point x="348" y="50" type="curve" smooth="yes"/>
      <point x="348" y="24"/>
      <point x="326" y="2"/>
      <point x="300" y="2" type="curve" smooth="yes"/>
      <point x="274" y="2"/>
      <point x="252" y="24"/>
    </contour>
  </outline>
</glyph>
<glyph name="quotesingle" format="2">
  <advance width="200"/>
  <unicode hex="0027"/>
  <outline>
    <contour>
      <point x="52" y="650" type="curve" smooth="yes"/>
      <point x="52" y="676"/>
      <point x="74" y="698"/>
      <point x="100" y="698" type="curve" smooth="yes"/>
      <point x="126" y="698"/>
      <point x="148" y="676"/>
      <point x="148" y="650" type="curve" smooth="yes"/>
      <point x="148" y="624"/>
      <point x="126" y="602"/>
      <point x="100" y="602" type="curve" smooth="yes"/>
      <point x="74" y="602"/>
      <point x="52" y="624"/>
    </contour>
    <contour>
      <point x="52" y="550" type="curve" smooth="yes"/>
      <point x="52" y="576"/>
      <point x="74" y="598"/>
      <point x="100" y="598" type="curve" smooth="yes"/>
      <point x="126" y="598"/>
      <point x="148" y="576"/>
      <point x="148" y="550" type="curve" smooth="yes"/>
      <point x="148" y="524"/>
      <point x="126" y="502"/>
      <point x="100" y="502" type="curve" smooth="yes"/>
      <point x="74" y="502"/>
      <point x="52" y="524"/>
    </contour>
    <contour>
      <point x="52" y="450" type="curve" smooth="yes"/>
      <point x="52" y="476"/>
      <point x="74" y="498"/>
      <point x="100" y="498" type="curve" smooth="yes"/>
      <point x="126" y="498"/>
      <point x="148" y="476"/>
      <point x="148" y="450" type="curve" smooth="yes"/>
      <point x="148" y="424"/>
      <point x="126" y="402"/>
      <point x="100" y="402" type="curve" smooth="yes"/>
      <point x="74" y="402"/>
      <point x="52" y="424"/>
    </contour>
  </outline>
</glyph>
<glyph name="hyphen" format="2">
  <advance width="500"/>
  <unicode hex="002D"/>
  <outline>
    <contour>
      <point x="52.0" y="350.0" type="curve" smooth="yes"/>
      <point x="52.0" y="376.0"/>
      <point x="74.0" y="398.0"/>
      <point x="100.0" y="398.0" type="curve" smooth="yes"/>
      <point x="126.0" y="398.0"/>
      <point x="148.0" y="376.0"/>
      <point x="148.0" y="350.0" type="curve" smooth="yes"/>
      <point x="148.0" y="324.0"/>
      <point x="126.0" y="302.0"/>
      <point x="100.0" y="302.0" type="curve" smooth="yes"/>
      <point x="74.0" y="302.0"/>
      <point x="52.0" y="324.0"/>
    </contour>
    <contour>
      <point x="152.0" y="350.0" type="curve" smooth="yes"/>
      <point x="152.0" y="376.0"/>
      <point x="174.0" y="398.0"/>
      <point x="200.0" y="398.0" type="curve" smooth="yes"/>
      <point x="226.0" y="398.0"/>
      <point x="248.0" y="376.0"/>
      <point x="248.0" y="350.0" type="curve" smooth="yes"/>
      <point x="248.0" y="324.0"/>
      <point x="226.0" y="302.0"/>
      <point x="200.0" y="302.0" type="curve" smooth="yes"/>
      <point x="174.0" y="302.0"/>
      <point x="152.0" y="324.0"/>
    </contour>
    <contour>
      <point x="252.0" y="350.0" type="curve" smooth="yes"/>
      <point x="252.0" y="376.0"/>
      <point x="274.0" y="398.0"/>
      <point x="300.0" y="398.0" type="curve" smooth="yes"/>
      <point x="326.0" y="398.0"/>
      <point x="348.0" y="376.0"/>
      <point x="348.0" y="350.0" type="curve" smooth="yes"/>
      <point x="348.0" y="324.0"/>
      <point x="326.0" y="302.0"/>
      <point x="300.0" y="302.0" type="curve" smooth="yes"/>
      <point x="274.0" y="302.0"/>
      <point x="252.0" y="324.0"/>
    </contour>
    <contour>
      <point x="352.0" y="350.0" type="curve" smooth="yes"/>
      <point x="352.0" y="376.0"/>
      <point x="374.0" y="398.0"/>
      <point x="400.0" y="398.0" type="curve" smooth="yes"/>
      <point x="426.0" y="398.0"/>
      <point x="448.0" y="376.0"/>
      <point x="448.0" y="350.0" type="curve" smooth="yes"/>
      <point x="448.0" y="324.0"/>
      <point x="426.0" y="302.0"/>
      <point x="400.0" y="302.0" type="curve" smooth="yes"/>
      <point x="374.0" y="302.0"/>
      <point x="352.0" y="324.0"/>
    </contour>
  </outline>
</glyph>
<glyph name="period" format="2">
  <advance width="200"/>
  <unicode hex="002E"/>
  <outline>
    <contour>
      <point x="52" y="50" type="curve" smooth="yes"/>
      <point x="52" y="76"/>
      <point x="74" y="98"/>
      <point x="100" y="98" type="curve" smooth="yes"/>
      <point x="126" y="98"/>
      <point x="148" y="76"/>
      <point x="148" y="50" type="curve" smooth="yes"/>
      <point x="148" y="24"/>
      <point x="126" y="2"/>
      <point x="100" y="2" type="curve" smooth="yes"/>
      <point x="74" y="2"/>
      <point x="52" y="24"/>
    </contour>
  </outline>
</glyph>
<glyph name="colon" format="2">
  <advance width="200"/>
  <unicode hex="003A"/>
  <outline>
    <contour>
      <point x="52" y="450" type="curve" smooth="yes"/>
      <point x="52" y="476"/>
      <point x="74" y="498"/>
      <point x="100" y="498" type="curve" smooth="yes"/>
      <point x="126" y="498"/>
      <point x="148" y="476"/>
      <point x="148" y="450" type="curve" smooth="yes"/>
      <point x="148" y="424"/>
      <point x="126" y="402"/>
      <point x="100" y="402" type="curve" smooth="yes"/>
      <point x="74" y="402"/>
      <point x="52" y="424"/>
    </contour>
    <contour>
      <point x="52" y="50" type="curve" smooth="yes"/>
      <point x="52" y="76"/>
      <point x="74" y="98"/>
      <point x="100" y="98" type="curve" smooth="yes"/>
      <point x="126" y="98"/>
      <point x="148" y="76"/>
      <point x="148" y="50" type="curve" smooth="yes"/>
      <point x="148" y="24"/>
      <point x="126" y="2"/>
      <point x="100" y="2" type="curve" smooth="yes"/>
      <point x="74" y="2"/>
      <point x="52" y="24"/>
    </contour>
  </outline>
</glyph>
<glyph name="semicolon" format="2">
  <advance width="300"/>
  <unicode hex="003B"/>
  <outline>
    <contour>
      <point x="152" y="450" type="curve" smooth="yes"/>
      <point x="152" y="476"/>
      <point x="174" y="498"/>
      <point x="200" y="498" type="curve" smooth="yes"/>
      <point x="226" y="498"/>
      <point x="248" y="476"/>
      <point x="248" y="450" type="curve" smooth="yes"/>
      <point x="248" y="424"/>
      <point x="226" y="402"/>
      <point x="200" y="402" type="curve" smooth="yes"/>
      <point x="174" y="402"/>
      <point x="152" y="424"/>
    </contour>
    <contour>
      <point x="152" y="150" type="curve" smooth="yes"/>
      <point x="152" y="176"/>
      <point x="174" y="198"/>
      <point x="200" y="198" type="curve" smooth="yes"/>
      <point x="226" y="198"/>
      <point x="248" y="176"/>
      <point x="248" y="150" type="curve" smooth="yes"/>
      <point x="248" y="124"/>
      <point x="226" y="102"/>
      <point x="200" y="102" type="curve" smooth="yes"/>
      <point x="174" y="102"/>
      <point x="152" y="124"/>
    </contour>
    <contour>
      <point x="152" y="50" type="curve" smooth="yes"/>
      <point x="152" y="76"/>
      <point x="174" y="98"/>
      <point x="200" y="98" type="curve" smooth="yes"/>
      <point x="226" y="98"/>
      <point x="248" y="76"/>
      <point x="248" y="50" type="curve" smooth="yes"/>
      <point x="248" y="24"/>
      <point x="226" y="2"/>
      <point x="200" y="2" type="curve" smooth="yes"/>
      <point x="174" y="2"/>
      <point x="152" y="24"/>
    </contour>
    <contour>
      <point x="52" y="-50" type="curve" smooth="yes"/>
      <point x="52" y="-24"/>
      <point x="74" y="-2"/>
      <point x="100" y="-2" type="curve" smooth="yes"/>
      <point x="126" y="-2"/>
      <point x="148" y="-24"/>
      <point x="148" y="-50" type="curve" smooth="yes"/>
      <point x="148" y="-76"/>
      <point x="126" y="-98"/>
      <point x="100" y="-98" type="curve" smooth="yes"/>
      <point x="74" y="-98"/>
      <point x="52" y="-76"/>
    </contour>
  </outline>
</glyph>
<glyph name="equal" format="2">
  <advance width="600"/>
  <unicode hex="003D"/>
  <outline>
    <contour>
      <point x="52" y="450" type="curve" smooth="yes"/>
      <point x="52" y="476"/>
      <point x="74" y="498"/>
      <point x="100" y="498" type="curve" smooth="yes"/>
      <point x="126" y="498"/>
      <point x="148" y="476"/>
      <point x="148" y="450" type="curve" smooth="yes"/>
      <point x="148" y="424"/>
      <point x="126" y="402"/>
      <point x="100" y="402" type="curve" smooth="yes"/>
      <point x="74" y="402"/>
      <point x="52" y="424"/>
    </contour>
    <contour>
      <point x="152" y="450" type="curve" smooth="yes"/>
      <point x="152" y="476"/>
      <point x="174" y="498"/>
      <point x="200" y="498" type="curve" smooth="yes"/>
      <point x="226" y="498"/>
      <point x="248" y="476"/>
      <point x="248" y="450" type="curve" smooth="yes"/>
      <point x="248" y="424"/>
      <point x="226" y="402"/>
      <point x="200" y="402" type="curve" smooth="yes"/>
      <point x="174" y="402"/>
      <point x="152" y="424"/>
    </contour>
    <contour>
      <point x="252" y="450" type="curve" smooth="yes"/>
      <point x="252" y="476"/>
      <point x="274" y="498"/>
      <point x="300" y="498" type="curve" smooth="yes"/>
      <point x="326" y="498"/>
      <point x="348" y="476"/>
      <point x="348" y="450" type="curve" smooth="yes"/>
      <point x="348" y="424"/>
      <point x="326" y="402"/>
      <point x="300" y="402" type="curve" smooth="yes"/>
      <point x="274" y="402"/>
      <point x="252" y="424"/>
    </contour>
    <contour>
      <point x="352" y="450" type="curve" smooth="yes"/>
      <point x="352" y="476"/>
      <point x="374" y="498"/>
      <point x="400" y="498" type="curve" smooth="yes"/>
      <point x="426" y="498"/>
      <point x="448" y="476"/>
      <point x="448" y="450" type="curve" smooth="yes"/>
      <point x="448" y="424"/>
      <point x="426" y="402"/>
      <point x="400" y="402" type="curve" smooth="yes"/>
      <point x="374" y="402"/>
      <point x="352" y="424"/>
    </contour>
    <contour>
      <point x="452" y="450" type="curve" smooth="yes"/>
      <point x="452" y="476"/>
      <point x="474" y="498"/>
      <point x="500" y="498" type="curve" smooth="yes"/>
      <point x="526" y="498"/>
      <point x="548" y="476"/>
      <point x="548" y="450" type="curve" smooth="yes"/>
      <point x="548" y="424"/>
      <point x="526" y="402"/>
      <point x="500" y="402" type="curve" smooth="yes"/>
      <point x="474" y="402"/>
      <point x="452" y="424"/>
    </contour>
    <contour>
      <point x="52" y="250" type="curve" smooth="yes"/>
      <point x="52" y="276"/>
      <point x="74" y="298"/>
      <point x="100" y="298" type="curve" smooth="yes"/>
      <point x="126" y="298"/>
      <point x="148" y="276"/>
      <point x="148" y="250" type="curve" smooth="yes"/>
      <point x="148" y="224"/>
      <point x="126" y="202"/>
      <point x="100" y="202" type="curve" smooth="yes"/>
      <point x="74" y="202"/>
      <point x="52" y="224"/>
    </contour>
    <contour>
      <point x="152" y="250" type="curve" smooth="yes"/>
      <point x="152" y="276"/>
      <point x="174" y="298"/>
      <point x="200" y="298" type="curve" smooth="yes"/>
      <point x="226" y="298"/>
      <point x="248" y="276"/>
      <point x="248" y="250" type="curve" smooth="yes"/>
      <point x="248" y="224"/>
      <point x="226" y="202"/>
      <point x="200" y="202" type="curve" smooth="yes"/>
      <point x="174" y="202"/>
      <point x="152" y="224"/>
    </contour>
    <contour>
      <point x="252" y="250" type="curve" smooth="yes"/>
      <point x="252" y="276"/>
      <point x="274" y="298"/>
      <point x="300" y="298" type="curve" smooth="yes"/>
      <point x="326" y="298"/>
      <point x="348" y="276"/>
      <point x="348" y="250" type="curve" smooth="yes"/>
      <point x="348" y="224"/>
      <point x="326" y="202"/>
      <point x="300" y="202" type="curve" smooth="yes"/>
      <point x="274" y="202"/>
      <point x="252" y="224"/>
    </contour>
    <contour>
      <point x="352" y="250" type="curve" smooth="yes"/>
      <point x="352" y="276"/>
      <point x="374" y="298"/>
      <point x="400" y="298" type="curve" smooth="yes"/>
      <point x="426" y="298"/>
      <point x="448" y="276"/>
      <point x="448" y="250" type="curve" smooth="yes"/>
      <point x="448" y="224"/>
      <point x="426" y="202"/>
      <point x="400" y="202" type="curve" smooth="yes"/>
      <point x="374" y="202"/>
      <point x="352" y="224"/>
    </contour>
    <contour>
      <point x="452" y="250" type="curve" smooth="yes"/>
      <point x="452" y="276"/>
      <point x="474" y="298"/>
      <point x="500" y="298" type="curve" smooth="yes"/>
      <point x="526" y="298"/>
      <point x="548" y="276"/>
      <point x="548" y="250" type="curve" smooth="yes"/>
      <point x="548" y="224"/>
      <point x="526" y="202"/>
      <point x="500" y="202" type="curve" smooth="yes"/>
      <point x="474" y="202"/>
      <point x="452" y="224"/>
    </contour>
  </outline>
</glyph>
<glyph name="greater" format="2">
  <advance width="400"/>
  <unicode hex="003E"/>
  <outline>
    <contour>
      <point x="52" y="550" type="curve" smooth="yes"/>
      <point x="52" y="576"/>
      <point x="74" y="598"/>
      <point x="100" y="598" type="curve" smooth="yes"/>
      <point x="126" y="598"/>
      <point x="148" y="576"/>
      <point x="148" y="550" type="curve" smooth="yes"/>
      <point x="148" y="524"/>
      <point x="126" y="502"/>
      <point x="100" y="502" type="curve" smooth="yes"/>
      <point x="74" y="502"/>
      <point x="52" y="524"/>
    </contour>
    <contour>
      <point x="152" y="450" type="curve" smooth="yes"/>
      <point x="152" y="476"/>
      <point x="174" y="498"/>
      <point x="200" y="498" type="curve" smooth="yes"/>
      <point x="226" y="498"/>
      <point x="248" y="476"/>
      <point x="248" y="450" type="curve" smooth="yes"/>
      <point x="248" y="424"/>
      <point x="226" y="402"/>
      <point x="200" y="402" type="curve" smooth="yes"/>
      <point x="174" y="402"/>
      <point x="152" y="424"/>
    </contour>
    <contour>
      <point x="252" y="350" type="curve" smooth="yes"/>
      <point x="252" y="376"/>
      <point x="274" y="398"/>
      <point x="300" y="398" type="curve" smooth="yes"/>
      <point x="326" y="398"/>
      <point x="348" y="376"/>
      <point x="348" y="350" type="curve" smooth="yes"/>
      <point x="348" y="324"/>
      <point x="326" y="302"/>
      <point x="300" y="302" type="curve" smooth="yes"/>
      <point x="274" y="302"/>
      <point x="252" y="324"/>
    </contour>
    <contour>
      <point x="152" y="250" type="curve" smooth="yes"/>
      <point x="152" y="276"/>
      <point x="174" y="298"/>
      <point x="200" y="298" type="curve" smooth="yes"/>
      <point x="226" y="298"/>
      <point x="248" y="276"/>
      <point x="248" y="250" type="curve" smooth="yes"/>
      <point x="248" y="224"/>
      <point x="226" y="202"/>
      <point x="200" y="202" type="curve" smooth="yes"/>
      <point x="174" y="202"/>
      <point x="152" y="224"/>
    </contour>
    <contour>
      <point x="52" y="150" type="curve" smooth="yes"/>
      <point x="52" y="176"/>
      <point x="74" y="198"/>
      <point x="100" y="198" type="curve" smooth="yes"/>
      <point x="126" y="198"/>
      <point x="148" y="176"/>
      <point x="148" y="150" type="curve" smooth="yes"/>
      <point x="148" y="124"/>
      <point x="126" y="102"/>
      <point x="100" y="102" type="curve" smooth="yes"/>
      <point x="74" y="102"/>
      <point x="52" y="124"/>
    </contour>
  </outline>
</glyph>
<glyph name="X" format="2">
  <advance width="600"/>
  <unicode hex="0058"/>
  <anchor x="300" y="0" name="marks_below"/>
  <anchor x="300" y="800" name="marks_above"/>
  <outline>
    <contour>
      <point x="52" y="650" type="curve" smooth="yes"/>
      <point x="52" y="676"/>
      <point x="74" y="698"/>
      <point x="100" y="698" type="curve" smooth="yes"/>
      <point x="126" y="698"/>
      <point x="148" y="676"/>
      <point x="148" y="650" type="curve" smooth="yes"/>
      <point x="148" y="624"/>
      <point x="126" y="602"/>
      <point x="100" y="602" type="curve" smooth="yes"/>
      <point x="74" y="602"/>
      <point x="52" y="624"/>
    </contour>
    <contour>
      <point x="452" y="650" type="curve" smooth="yes"/>
      <point x="452" y="676"/>
      <point x="474" y="698"/>
      <point x="500" y="698" type="curve" smooth="yes"/>
      <point x="526" y="698"/>
      <point x="548" y="676"/>
      <point x="548" y="650" type="curve" smooth="yes"/>
      <point x="548" y="624"/>
      <point x="526" y="602"/>
      <point x="500" y="602" type="curve" smooth="yes"/>
      <point x="474" y="602"/>
      <point x="452" y="624"/>
    </contour>
    <contour>
      <point x="52" y="550" type="curve" smooth="yes"/>
      <point x="52" y="576"/>
      <point x="74" y="598"/>
      <point x="100" y="598" type="curve" smooth="yes"/>
      <point x="126" y="598"/>
      <point x="148" y="576"/>
      <point x="148" y="550" type="curve" smooth="yes"/>
      <point x="148" y="524"/>
      <point x="126" y="502"/>
      <point x="100" y="502" type="curve" smooth="yes"/>
      <point x="74" y="502"/>
      <point x="52" y="524"/>
    </contour>
    <contour>
      <point x="452" y="550" type="curve" smooth="yes"/>
      <point x="452" y="576"/>
      <point x="474" y="598"/>
      <point x="500" y="598" type="curve" smooth="yes"/>
      <point x="526" y="598"/>
      <point x="548" y="576"/>
      <point x="548" y="550" type="curve" smooth="yes"/>
      <point x="548" y="524"/>
      <point x="526" y="502"/>
      <point x="500" y="502" type="curve" smooth="yes"/>
      <point x="474" y="502"/>
      <point x="452" y="524"/>
    </contour>
    <contour>
      <point x="152" y="450" type="curve" smooth="yes"/>
      <point x="152" y="476"/>
      <point x="174" y="498"/>
      <point x="200" y="498" type="curve" smooth="yes"/>
      <point x="226" y="498"/>
      <point x="248" y="476"/>
      <point x="248" y="450" type="curve" smooth="yes"/>
      <point x="248" y="424"/>
      <point x="226" y="402"/>
      <point x="200" y="402" type="curve" smooth="yes"/>
      <point x="174" y="402"/>
      <point x="152" y="424"/>
    </contour>
    <contour>
      <point x="352" y="450" type="curve" smooth="yes"/>
      <point x="352" y="476"/>
      <point x="374" y="498"/>
      <point x="400" y="498" type="curve" smooth="yes"/>
      <point x="426" y="498"/>
      <point x="448" y="476"/>
      <point x="448" y="450" type="curve" smooth="yes"/>
      <point x="448" y="424"/>
      <point x="426" y="402"/>
      <point x="400" y="402" type="curve" smooth="yes"/>
      <point x="374" y="402"/>
      <point x="352" y="424"/>
    </contour>
    <contour>
      <point x="252" y="350" type="curve" smooth="yes"/>
      <point x="252" y="376"/>
      <point x="274" y="398"/>
      <point x="300" y="398" type="curve" smooth="yes"/>
      <point x="326" y="398"/>
      <point x="348" y="376"/>
      <point x="348" y="350" type="curve" smooth="yes"/>
      <point x="348" y="324"/>
      <point x="326" y="302"/>
      <point x="300" y="302" type="curve" smooth="yes"/>
      <point x="274" y="302"/>
      <point x="252" y="324"/>
    </contour>
    <contour>
      <point x="152" y="250" type="curve" smooth="yes"/>
      <point x="152" y="276"/>
      <point x="174" y="298"/>
      <point x="200" y="298" type="curve" smooth="yes"/>
      <point x="226" y="298"/>
      <point x="248" y="276"/>
      <point x="248" y="250" type="curve" smooth="yes"/>
      <point x="248" y="224"/>
      <point x="226" y="202"/>
      <point x="200" y="202" type="curve" smooth="yes"/>
      <point x="174" y="202"/>
      <point x="152" y="224"/>
    </contour>
    <contour>
      <point x="352" y="250" type="curve" smooth="yes"/>
      <point x="352" y="276"/>
      <point x="374" y="298"/>
      <point x="400" y="298" type="curve" smooth="yes"/>
      <point x="426" y="298"/>
      <point x="448" y="276"/>
      <point x="448" y="250" type="curve" smooth="yes"/>
      <point x="448" y="224"/>
      <point x="426" y="202"/>
      <point x="400" y="202" type="curve" smooth="yes"/>
      <point x="374" y="202"/>
      <point x="352" y="224"/>
    </contour>
    <contour>
      <point x="52" y="150" type="curve" smooth="yes"/>
      <point x="52" y="176"/>
      <point x="74" y="198"/>
      <point x="100" y="198" type="curve" smooth="yes"/>
      <point x="126" y="198"/>
      <point x="148" y="176"/>
      <point x="148" y="150" type="curve" smooth="yes"/>
      <point x="148" y="124"/>
      <point x="126" y="102"/>
      <point x="100" y="102" type="curve" smooth="yes"/>
      <point x="74" y="102"/>
      <point x="52" y="124"/>
    </contour>
    <contour>
      <point x="452" y="150" type="curve" smooth="yes"/>
      <point x="452" y="176"/>
      <point x="474" y="198"/>
      <point x="500" y="198" type="curve" smooth="yes"/>
      <point x="526" y="198"/>
      <point x="548" y="176"/>
      <point x="548" y="150" type="curve" smooth="yes"/>
      <point x="548" y="124"/>
      <point x="526" y="102"/>
      <point x="500" y="102" type="curve" smooth="yes"/>
      <point x="474" y="102"/>
      <point x="452" y="124"/>
    </contour>
    <contour>
      <point x="52" y="50" type="curve" smooth="yes"/>
      <point x="52" y="76"/>
      <point x="74" y="98"/>
      <point x="100" y="98" type="curve" smooth="yes"/>
      <point x="126" y="98"/>
      <point x="148" y="76"/>
      <point x="148" y="50" type="curve" smooth="yes"/>
      <point x="148" y="24"/>
      <point x="126" y="2"/>
      <point x="100" y="2" type="curve" smooth="yes"/>
      <point x="74" y="2"/>
      <point x="52" y="24"/>
    </contour>
    <contour>
      <point x="452" y="50" type="curve" smooth="yes"/>
      <point x="452" y="76"/>
      <point x="474" y="98"/>
      <point x="500" y="98" type="curve" smooth="yes"/>
      <point x="526" y="98"/>
      <point x="548" y="76"/>
      <point x="548" y="50" type="curve" smooth="yes"/>
      <point x="548" y="24"/>
      <point x="526" y="2"/>
      <point x="500" y="2" type="curve" smooth="yes"/>
      <point x="474" y="2"/>
      <point x="452" y="24"/>
    </contour>
  </outline>
</glyph>
<glyph name="backslash" format="2">
  <advance width="600"/>
  <unicode hex="005C"/>
  <outline>
    <contour>
      <point x="52" y="550" type="curve" smooth="yes"/>
      <point x="52" y="576"/>
      <point x="74" y="598"/>
      <point x="100" y="598" type="curve" smooth="yes"/>
      <point x="126" y="598"/>
      <point x="148" y="576"/>
      <point x="148" y="550" type="curve" smooth="yes"/>
      <point x="148" y="524"/>
      <point x="126" y="502"/>
      <point x="100" y="502" type="curve" smooth="yes"/>
      <point x="74" y="502"/>
      <point x="52" y="524"/>
    </contour>
    <contour>
      <point x="152" y="450" type="curve" smooth="yes"/>
      <point x="152" y="476"/>
      <point x="174" y="498"/>
      <point x="200" y="498" type="curve" smooth="yes"/>
      <point x="226" y="498"/>
      <point x="248" y="476"/>
      <point x="248" y="450" type="curve" smooth="yes"/>
      <point x="248" y="424"/>
      <point x="226" y="402"/>
      <point x="200" y="402" type="curve" smooth="yes"/>
      <point x="174" y="402"/>
      <point x="152" y="424"/>
    </contour>
    <contour>
      <point x="252" y="350" type="curve" smooth="yes"/>
      <point x="252" y="376"/>
      <point x="274" y="398"/>
      <point x="300" y="398" type="curve" smooth="yes"/>
      <point x="326" y="398"/>
      <point x="348" y="376"/>
      <point x="348" y="350" type="curve" smooth="yes"/>
      <point x="348" y="324"/>
      <point x="326" y="302"/>
      <point x="300" y="302" type="curve" smooth="yes"/>
      <point x="274" y="302"/>
      <point x="252" y="324"/>
    </contour>
    <contour>
      <point x="352" y="250" type="curve" smooth="yes"/>
      <point x="352" y="276"/>
      <point x="374" y="298"/>
      <point x="400" y="298" type="curve" smooth="yes"/>
      <point x="426" y="298"/>
      <point x="448" y="276"/>
      <point x="448" y="250" type="curve" smooth="yes"/>
      <point x="448" y="224"/>
      <point x="426" y="202"/>
      <point x="400" y="202" type="curve" smooth="yes"/>
      <point x="374" y="202"/>
      <point x="352" y="224"/>
    </contour>
    <contour>
      <point x="452" y="150" type="curve" smooth="yes"/>
      <point x="452" y="176"/>
      <point x="474" y="198"/>
      <point x="500" y="198" type="curve" smooth="yes"/>
      <point x="526" y="198"/>
      <point x="548" y="176"/>
      <point x="548" y="150" type="curve" smooth="yes"/>
      <point x="548" y="124"/>
      <point x="526" y="102"/>
      <point x="500" y="102" type="curve" smooth="yes"/>
      <point x="474" y="102"/>
      <point x="452" y="124"/>
    </contour>
  </outline>
</glyph>
<glyph name="asciicircum" format="2">
  <advance width="600"/>
  <unicode hex="005E"/>
  <outline>
    <contour>
      <point x="252" y="650" type="curve" smooth="yes"/>
      <point x="252" y="676"/>
      <point x="274" y="698"/>
      <point x="300" y="698" type="curve" smooth="yes"/>
      <point x="326" y="698"/>
      <point x="348" y="676"/>
      <point x="348" y="650" type="curve" smooth="yes"/>
      <point x="348" y="624"/>
      <point x="326" y="602"/>
      <point x="300" y="602" type="curve" smooth="yes"/>
      <point x="274" y="602"/>
      <point x="252" y="624"/>
    </contour>
    <contour>
      <point x="152" y="550" type="curve" smooth="yes"/>
      <point x="152" y="576"/>
      <point x="174" y="598"/>
      <point x="200" y="598" type="curve" smooth="yes"/>
      <point x="226" y="598"/>
      <point x="248" y="576"/>
      <point x="248" y="550" type="curve" smooth="yes"/>
      <point x="248" y="524"/>
      <point x="226" y="502"/>
      <point x="200" y="502" type="curve" smooth="yes"/>
      <point x="174" y="502"/>
      <point x="152" y="524"/>
    </contour>
    <contour>
      <point x="352" y="550" type="curve" smooth="yes"/>
      <point x="352" y="576"/>
      <point x="374" y="598"/>
      <point x="400" y="598" type="curve" smooth="yes"/>
      <point x="426" y="598"/>
      <point x="448" y="576"/>
      <point x="448" y="550" type="curve" smooth="yes"/>
      <point x="448" y="524"/>
      <point x="426" y="502"/>
      <point x="400" y="502" type="curve" smooth="yes"/>
      <point x="374" y="502"/>
      <point x="352" y="524"/>
    </contour>
    <contour>
      <point x="52" y="450" type="curve" smooth="yes"/>
      <point x="52" y="476"/>
      <point x="74" y="498"/>
      <point x="100" y="498" type="curve" smooth="yes"/>
      <point x="126" y="498"/>
      <point x="148" y="476"/>
      <point x="148" y="450" type="curve" smooth="yes"/>
      <point x="148" y="424"/>
      <point x="126" y="402"/>
      <point x="100" y="402" type="curve" smooth="yes"/>
      <point x="74" y="402"/>
      <point x="52" y="424"/>
    </contour>
    <contour>
      <point x="452" y="450" type="curve" smooth="yes"/>
      <point x="452" y="476"/>
      <point x="474" y="498"/>
      <point x="500" y="498" type="curve" smooth="yes"/>
      <point x="526" y="498"/>
      <point x="548" y="476"/>
      <point x="548" y="450" type="curve" smooth="yes"/>
      <point x="548" y="424"/>
      <point x="526" y="402"/>
      <point x="500" y="402" type="curve" smooth="yes"/>
      <point x="474" y="402"/>
      <point x="452" y="424"/>
    </contour>
  </outline>
</glyph>
<glyph name="underscore" format="2">
  <advance width="600"/>
  <unicode hex="005F"/>
  <outline>
    <contour>
      <point x="2" y="-50" type="curve" smooth="yes"/>
      <point x="2" y="-24"/>
      <point x="24" y="-2"/>
      <point x="50" y="-2" type="curve" smooth="yes"/>
      <point x="76" y="-2"/>
      <point x="98" y="-24"/>
      <point x="98" y="-50" type="curve" smooth="yes"/>
      <point x="98" y="-76"/>
      <point x="76" y="-98"/>
      <point x="50" y="-98" type="curve" smooth="yes"/>
      <point x="24" y="-98"/>
      <point x="2" y="-76"/>
    </contour>
    <contour>
      <point x="102" y="-50" type="curve" smooth="yes"/>
      <point x="102" y="-24"/>
      <point x="124" y="-2"/>
      <point x="150" y="-2" type="curve" smooth="yes"/>
      <point x="176" y="-2"/>
      <point x="198" y="-24"/>
      <point x="198" y="-50" type="curve" smooth="yes"/>
      <point x="198" y="-76"/>
      <point x="176" y="-98"/>
      <point x="150" y="-98" type="curve" smooth="yes"/>
      <point x="124" y="-98"/>
      <point x="102" y="-76"/>
    </contour>
    <contour>
      <point x="202" y="-50" type="curve" smooth="yes"/>
      <point x="202" y="-24"/>
      <point x="224" y="-2"/>
      <point x="250" y="-2" type="curve" smooth="yes"/>
      <point x="276" y="-2"/>
      <point x="298" y="-24"/>
      <point x="298" y="-50" type="curve" smooth="yes"/>
      <point x="298" y="-76"/>
      <point x="276" y="-98"/>
      <point x="250" y="-98" type="curve" smooth="yes"/>
      <point x="224" y="-98"/>
      <point x="202" y="-76"/>
    </contour>
    <contour>
      <point x="302" y="-50" type="curve" smooth="yes"/>
      <point x="302" y="-24"/>
      <point x="324" y="-2"/>
      <point x="350" y="-2" type="curve" smooth="yes"/>
      <point x="376" y="-2"/>
      <point x="398" y="-24"/>
      <point x="398" y="-50" type="curve" smooth="yes"/>
      <point x="398" y="-76"/>
      <point x="376" y="-98"/>
      <point x="350" y="-98" type="curve" smooth="yes"/>
      <point x="324" y="-98"/>
      <point x="302" y="-76"/>
    </contour>
    <contour>
      <point x="402" y="-50" type="curve" smooth="yes"/>
      <point x="402" y="-24"/>
      <point x="424" y="-2"/>
      <point x="450" y="-2" type="curve" smooth="yes"/>
      <point x="476" y="-2"/>
      <point x="498" y="-24"/>
      <point x="498" y="-50" type="curve" smooth="yes"/>
      <point x="498" y="-76"/>
      <point x="476" y="-98"/>
      <point x="450" y="-98" type="curve" smooth="yes"/>
      <point x="424" y="-98"/>
      <point x="402" y="-76"/>
    </contour>
    <contour>
      <point x="502" y="-50" type="curve" smooth="yes"/>
      <point x="502" y="-24"/>
      <point x="524" y="-2"/>
      <point x="550" y="-2" type="curve" smooth="yes"/>
      <point x="576" y="-2"/>
      <point x="598" y="-24"/>
      <point x="598" y="-50" type="curve" smooth="yes"/>
      <point x="598" y="-76"/>
      <point x="576" y="-98"/>
      <point x="550" y="-98" type="curve" smooth="yes"/>
      <point x="524" y="-98"/>
      <point x="502" y="-76"/>
    </contour>
  </outline>
</glyph>
<glyph name="j" format="2">
  <advance width="500"/>
  <unicode hex="006A"/>
  <outline>
    <contour>
      <point x="352" y="650" type="curve" smooth="yes"/>
      <point x="352" y="676"/>
      <point x="374" y="698"/>
      <point x="400" y="698" type="curve" smooth="yes"/>
      <point x="426" y="698"/>
      <point x="448" y="676"/>
      <point x="448" y="650" type="curve" smooth="yes"/>
      <point x="448" y="624"/>
      <point x="426" y="602"/>
      <point x="400" y="602" type="curve" smooth="yes"/>
      <point x="374" y="602"/>
      <point x="352" y="624"/>
    </contour>
    <contour>
      <point x="252" y="450" type="curve" smooth="yes"/>
      <point x="252" y="476"/>
      <point x="274" y="498"/>
      <point x="300" y="498" type="curve" smooth="yes"/>
      <point x="326" y="498"/>
      <point x="348" y="476"/>
      <point x="348" y="450" type="curve" smooth="yes"/>
      <point x="348" y="424"/>
      <point x="326" y="402"/>
      <point x="300" y="402" type="curve" smooth="yes"/>
      <point x="274" y="402"/>
      <point x="252" y="424"/>
    </contour>
    <contour>
      <point x="352" y="450" type="curve" smooth="yes"/>
      <point x="352" y="476"/>
      <point x="374" y="498"/>
      <point x="400" y="498" type="curve" smooth="yes"/>
      <point x="426" y="498"/>
      <point x="448" y="476"/>
      <point x="448" y="450" type="curve" smooth="yes"/>
      <point x="448" y="424"/>
      <point x="426" y="402"/>
      <point x="400" y="402" type="curve" smooth="yes"/>
      <point x="374" y="402"/>
      <point x="352" y="424"/>
    </contour>
    <contour>
      <point x="352" y="350" type="curve" smooth="yes"/>
      <point x="352" y="376"/>
      <point x="374" y="398"/>
      <point x="400" y="398" type="curve" smooth="yes"/>
      <point x="426" y="398"/>
      <point x="448" y="376"/>
      <point x="448" y="350" type="curve" smooth="yes"/>
      <point x="448" y="324"/>
      <point x="426" y="302"/>
      <point x="400" y="302" type="curve" smooth="yes"/>
      <point x="374" y="302"/>
      <point x="352" y="324"/>
    </contour>
    <contour>
      <point x="352" y="250" type="curve" smooth="yes"/>
      <point x="352" y="276"/>
      <point x="374" y="298"/>
      <point x="400" y="298" type="curve" smooth="yes"/>
      <point x="426" y="298"/>
      <point x="448" y="276"/>
      <point x="448" y="250" type="curve" smooth="yes"/>
      <point x="448" y="224"/>
      <point x="426" y="202"/>
      <point x="400" y="202" type="curve" smooth="yes"/>
      <point x="374" y="202"/>
      <point x="352" y="224"/>
    </contour>
    <contour>
      <point x="352" y="150" type="curve" smooth="yes"/>
      <point x="352" y="176"/>
      <point x="374" y="198"/>
      <point x="400" y="198" type="curve" smooth="yes"/>
      <point x="426" y="198"/>
      <point x="448" y="176"/>
      <point x="448" y="150" type="curve" smooth="yes"/>
      <point x="448" y="124"/>
      <point x="426" y="102"/>
      <point x="400" y="102" type="curve" smooth="yes"/>
      <point x="374" y="102"/>
      <point x="352" y="124"/>
    </contour>
    <contour>
      <point x="352" y="50" type="curve" smooth="yes"/>
      <point x="352" y="76"/>
      <point x="374" y="98"/>
      <point x="400" y="98" type="curve" smooth="yes"/>
      <point x="426" y="98"/>
      <point x="448" y="76"/>
      <point x="448" y="50" type="curve" smooth="yes"/>
      <point x="448" y="24"/>
      <point x="426" y="2"/>
      <point x="400" y="2" type="curve" smooth="yes"/>
      <point x="374" y="2"/>
      <point x="352" y="24"/>
    </contour>
    <contour>
      <point x="52" y="-50" type="curve" smooth="yes"/>
      <point x="52" y="-24"/>
      <point x="74" y="-2"/>
      <point x="100" y="-2" type="curve" smooth="yes"/>
      <point x="126" y="-2"/>
      <point x="148" y="-24"/>
      <point x="148" y="-50" type="curve" smooth="yes"/>
      <point x="148" y="-76"/>
      <point x="126" y="-98"/>
      <point x="100" y="-98" type="curve" smooth="yes"/>
      <point x="74" y="-98"/>
      <point x="52" y="-76"/>
    </contour>
    <contour>
      <point x="352" y="-50" type="curve" smooth="yes"/>
      <point x="352" y="-24"/>
      <point x="374" y="-2"/>
      <point x="400" y="-2" type="curve" smooth="yes"/>
      <point x="426" y="-2"/>
      <point x="448" y="-24"/>
      <point x="448" y="-50" type="curve" smooth="yes"/>
      <point x="448" y="-76"/>
      <point x="426" y="-98"/>
      <point x="400" y="-98" type="curve" smooth="yes"/>
      <point x="374" y="-98"/>
      <point x="352" y="-76"/>
    </contour>
    <contour>
      <point x="152" y="-150" type="curve" smooth="yes"/>
      <point x="152" y="-124"/>
      <point x="174" y="-102"/>
      <point x="200" y="-102" type="curve" smooth="yes"/>
      <point x="226" y="-102"/>
      <point x="248" y="-124"/>
      <point x="248" y="-150" type="curve" smooth="yes"/>
      <point x="248" y="-176"/>
      <point x="226" y="-198"/>
      <point x="200" y="-198" type="curve" smooth="yes"/>
      <point x="174" y="-198"/>
      <point x="152" y="-176"/>
    </contour>
    <contour>
      <point x="252" y="-150" type="curve" smooth="yes"/>
      <point x="252" y="-124"/>
      <point x="274" y="-102"/>
      <point x="300" y="-102" type="curve" smooth="yes"/>
      <point x="326" y="-102"/>
      <point x="348" y="-124"/>
      <point x="348" y="-150" type="curve" smooth="yes"/>
      <point x="348" y="-176"/>
      <point x="326" y="-198"/>
      <point x="300" y="-198" type="curve" smooth="yes"/>
      <point x="274" y="-198"/>
      <point x="252" y="-176"/>
    </contour>
  </outline>
</glyph>
<glyph name="l" format="2">
  <advance width="400"/>
  <unicode hex="006C"/>
  <anchor x="250" y="450" name="marks_aboveright"/>
  <anchor x="200" y="0" name="marks_below"/>
  <anchor x="200" y="0" name="ogonek"/>
  <anchor x="200" y="800" name="marks_above"/>
  <outline>
    <contour>
      <point x="52" y="650" type="curve" smooth="yes"/>
      <point x="52" y="676"/>
      <point x="74" y="698"/>
      <point x="100" y="698" type="curve" smooth="yes"/>
      <point x="126" y="698"/>
      <point x="148" y="676"/>
      <point x="148" y="650" type="curve" smooth="yes"/>
      <point x="148" y="624"/>
      <point x="126" y="602"/>
      <point x="100" y="602" type="curve" smooth="yes"/>
      <point x="74" y="602"/>
      <point x="52" y="624"/>
    </contour>
    <contour>
      <point x="152" y="650" type="curve" smooth="yes"/>
      <point x="152" y="676"/>
      <point x="174" y="698"/>
      <point x="200" y="698" type="curve" smooth="yes"/>
      <point x="226" y="698"/>
      <point x="248" y="676"/>
      <point x="248" y="650" type="curve" smooth="yes"/>
      <point x="248" y="624"/>
      <point x="226" y="602"/>
      <point x="200" y="602" type="curve" smooth="yes"/>
      <point x="174" y="602"/>
      <point x="152" y="624"/>
    </contour>
    <contour>
      <point x="152" y="550" type="curve" smooth="yes"/>
      <point x="152" y="576"/>
      <point x="174" y="598"/>
      <point x="200" y="598" type="curve" smooth="yes"/>
      <point x="226" y="598"/>
      <point x="248" y="576"/>
      <point x="248" y="550" type="curve" smooth="yes"/>
      <point x="248" y="524"/>
      <point x="226" y="502"/>
      <point x="200" y="502" type="curve" smooth="yes"/>
      <point x="174" y="502"/>
      <point x="152" y="524"/>
    </contour>
    <contour>
      <point x="152" y="450" type="curve" smooth="yes"/>
      <point x="152" y="476"/>
      <point x="174" y="498"/>
      <point x="200" y="498" type="curve" smooth="yes"/>
      <point x="226" y="498"/>
      <point x="248" y="476"/>
      <point x="248" y="450" type="curve" smooth="yes"/>
      <point x="248" y="424"/>
      <point x="226" y="402"/>
      <point x="200" y="402" type="curve" smooth="yes"/>
      <point x="174" y="402"/>
      <point x="152" y="424"/>
    </contour>
    <contour>
      <point x="152" y="350" type="curve" smooth="yes"/>
      <point x="152" y="376"/>
      <point x="174" y="398"/>
      <point x="200" y="398" type="curve" smooth="yes"/>
      <point x="226" y="398"/>
      <point x="248" y="376"/>
      <point x="248" y="350" type="curve" smooth="yes"/>
      <point x="248" y="324"/>
      <point x="226" y="302"/>
      <point x="200" y="302" type="curve" smooth="yes"/>
      <point x="174" y="302"/>
      <point x="152" y="324"/>
    </contour>
    <contour>
      <point x="152" y="250" type="curve" smooth="yes"/>
      <point x="152" y="276"/>
      <point x="174" y="298"/>
      <point x="200" y="298" type="curve" smooth="yes"/>
      <point x="226" y="298"/>
      <point x="248" y="276"/>
      <point x="248" y="250" type="curve" smooth="yes"/>
      <point x="248" y="224"/>
      <point x="226" y="202"/>
      <point x="200" y="202" type="curve" smooth="yes"/>
      <point x="174" y="202"/>
      <point x="152" y="224"/>
    </contour>
    <contour>
      <point x="152" y="150" type="curve" smooth="yes"/>
      <point x="152" y="176"/>
      <point x="174" y="198"/>
      <point x="200" y="198" type="curve" smooth="yes"/>
      <point x="226" y="198"/>
      <point x="248" y="176"/>
      <point x="248" y="150" type="curve" smooth="yes"/>
      <point x="248" y="124"/>
      <point x="226" y="102"/>
      <point x="200" y="102" type="curve" smooth="yes"/>
      <point x="174" y="102"/>
      <point x="152" y="124"/>
    </contour>
    <contour>
      <point x="52" y="50" type="curve" smooth="yes"/>
      <point x="52" y="76"/>
      <point x="74" y="98"/>
      <point x="100" y="98" type="curve" smooth="yes"/>
      <point x="126" y="98"/>
      <point x="148" y="76"/>
      <point x="148" y="50" type="curve" smooth="yes"/>
      <point x="148" y="24"/>
      <point x="126" y="2"/>
      <point x="100" y="2" type="curve" smooth="yes"/>
      <point x="74" y="2"/>
      <point x="52" y="24"/>
    </contour>
    <contour>
      <point x="152" y="50" type="curve" smooth="yes"/>
      <point x="152" y="76"/>
      <point x="174" y="98"/>
      <point x="200" y="98" type="curve" smooth="yes"/>
      <point x="226" y="98"/>
      <point x="248" y="76"/>
      <point x="248" y="50" type="curve" smooth="yes"/>
      <point x="248" y="24"/>
      <point x="226" y="2"/>
      <point x="200" y="2" type="curve" smooth="yes"/>
      <point x="174" y="2"/>
      <point x="152" y="24"/>
    </contour>
    <contour>
      <point x="252" y="50" type="curve" smooth="yes"/>
      <point x="252" y="76"/>
      <point x="274" y="98"/>
      <point x="300" y="98" type="curve" smooth="yes"/>
      <point x="326" y="98"/>
      <point x="348" y="76"/>
      <point x="348" y="50" type="curve" smooth="yes"/>
      <point x="348" y="24"/>
      <point x="326" y="2"/>
      <point x="300" y="2" type="curve" smooth="yes"/>
      <point x="274" y="2"/>
      <point x="252" y="24"/>
    </contour>
  </outline>
</glyph>
<glyph name="exclamdown" format="2">
  <advance width="200"/>
  <unicode hex="00A1"/>
  <outline>
    <contour>
      <point x="52" y="450" type="curve" smooth="yes"/>
      <point x="52" y="476"/>
      <point x="74" y="498"/>
      <point x="100" y="498" type="curve" smooth="yes"/>
      <point x="126" y="498"/>
      <point x="148" y="476"/>
      <point x="148" y="450" type="curve" smooth="yes"/>
      <point x="148" y="424"/>
      <point x="126" y="402"/>
      <point x="100" y="402" type="curve" smooth="yes"/>
      <point x="74" y="402"/>
      <point x="52" y="424"/>
    </contour>
    <contour>
      <point x="52" y="250" type="curve" smooth="yes"/>
      <point x="52" y="276"/>
      <point x="74" y="298"/>
      <point x="100" y="298" type="curve" smooth="yes"/>
      <point x="126" y="298"/>
      <point x="148" y="276"/>
      <point x="148" y="250" type="curve" smooth="yes"/>
      <point x="148" y="224"/>
      <point x="126" y="202"/>
      <point x="100" y="202" type="curve" smooth="yes"/>
      <point x="74" y="202"/>
      <point x="52" y="224"/>
    </contour>
    <contour>
      <point x="52" y="150" type="curve" smooth="yes"/>
      <point x="52" y="176"/>
      <point x="74" y="198"/>
      <point x="100" y="198" type="curve" smooth="yes"/>
      <point x="126" y="198"/>
      <point x="148" y="176"/>
      <point x="148" y="150" type="curve" smooth="yes"/>
      <point x="148" y="124"/>
      <point x="126" y="102"/>
      <point x="100" y="102" type="curve" smooth="yes"/>
      <point x="74" y="102"/>
      <point x="52" y="124"/>
    </contour>
    <contour>
      <point x="52" y="50" type="curve" smooth="yes"/>
      <point x="52" y="76"/>
      <point x="74" y="98"/>
      <point x="100" y="98" type="curve" smooth="yes"/>
      <point x="126" y="98"/>
      <point x="148" y="76"/>
      <point x="148" y="50" type="curve" smooth="yes"/>
      <point x="148" y="24"/>
      <point x="126" y="2"/>
      <point x="100" y="2" type="curve" smooth="yes"/>
      <point x="74" y="2"/>
      <point x="52" y="24"/>
    </contour>
    <contour>
      <point x="52" y="-50" type="curve" smooth="yes"/>
      <point x="52" y="-24"/>
      <point x="74" y="-2"/>
      <point x="100" y="-2" type="curve" smooth="yes"/>
      <point x="126" y="-2"/>
      <point x="148" y="-24"/>
      <point x="148" y="-50" type="curve" smooth="yes"/>
      <point x="148" y="-76"/>
      <point x="126" y="-98"/>
      <point x="100" y="-98" type="curve" smooth="yes"/>
      <point x="74" y="-98"/>
      <point x="52" y="-76"/>
    </contour>
    <contour>
      <point x="52" y="-150" type="curve" smooth="yes"/>
      <point x="52" y="-124"/>
      <point x="74" y="-102"/>
      <point x="100" y="-102" type="curve" smooth="yes"/>
      <point x="126" y="-102"/>
      <point x="148" y="-124"/>
      <point x="148" y="-150" type="curve" smooth="yes"/>
      <point x="148" y="-176"/>
      <point x="126" y="-198"/>
      <point x="100" y="-198" type="curve" smooth="yes"/>
      <point x="74" y="-198"/>
      <point x="52" y="-176"/>
    </contour>
  </outline>
</glyph>
<glyph name="macron" format="2">
  <advance width="400"/>
  <unicode hex="00AF"/>
  <outline>
    <contour>
      <point x="52" y="650" type="curve" smooth="yes"/>
      <point x="52" y="676"/>
      <point x="74" y="698"/>
      <point x="100" y="698" type="curve" smooth="yes"/>
      <point x="126" y="698"/>
      <point x="148" y="676"/>
      <point x="148" y="650" type="curve" smooth="yes"/>
      <point x="148" y="624"/>
      <point x="126" y="602"/>
      <point x="100" y="602" type="curve" smooth="yes"/>
      <point x="74" y="602"/>
      <point x="52" y="624"/>
    </contour>
    <contour>
      <point x="152" y="650" type="curve" smooth="yes"/>
      <point x="152" y="676"/>
      <point x="174" y="698"/>
      <point x="200" y="698" type="curve" smooth="yes"/>
      <point x="226" y="698"/>
      <point x="248" y="676"/>
      <point x="248" y="650" type="curve" smooth="yes"/>
      <point x="248" y="624"/>
      <point x="226" y="602"/>
      <point x="200" y="602" type="curve" smooth="yes"/>
      <point x="174" y="602"/>
      <point x="152" y="624"/>
    </contour>
    <contour>
      <point x="252" y="650" type="curve" smooth="yes"/>
      <point x="252" y="676"/>
      <point x="274" y="698"/>
      <point x="300" y="698" type="curve" smooth="yes"/>
      <point x="326" y="698"/>
      <point x="348" y="676"/>
      <point x="348" y="650" type="curve" smooth="yes"/>
      <point x="348" y="624"/>
      <point x="326" y="602"/>
      <point x="300" y="602" type="curve" smooth="yes"/>
      <point x="274" y="602"/>
      <point x="252" y="624"/>
    </contour>
  </outline>
</glyph>
<glyph name="degree" format="2">
  <advance width="500"/>
  <unicode hex="00B0"/>
  <outline>
    <contour>
      <point x="152" y="650" type="curve" smooth="yes"/>
      <point x="152" y="676"/>
      <point x="174" y="698"/>
      <point x="200" y="698" type="curve" smooth="yes"/>
      <point x="226" y="698"/>
      <point x="248" y="676"/>
      <point x="248" y="650" type="curve" smooth="yes"/>
      <point x="248" y="624"/>
      <point x="226" y="602"/>
      <point x="200" y="602" type="curve" smooth="yes"/>
      <point x="174" y="602"/>
      <point x="152" y="624"/>
    </contour>
    <contour>
      <point x="252" y="650" type="curve" smooth="yes"/>
      <point x="252" y="676"/>
      <point x="274" y="698"/>
      <point x="300" y="698" type="curve" smooth="yes"/>
      <point x="326" y="698"/>
      <point x="348" y="676"/>
      <point x="348" y="650" type="curve" smooth="yes"/>
      <point x="348" y="624"/>
      <point x="326" y="602"/>
      <point x="300" y="602" type="curve" smooth="yes"/>
      <point x="274" y="602"/>
      <point x="252" y="624"/>
    </contour>
    <contour>
      <point x="52" y="550" type="curve" smooth="yes"/>
      <point x="52" y="576"/>
      <point x="74" y="598"/>
      <point x="100" y="598" type="curve" smooth="yes"/>
      <point x="126" y="598"/>
      <point x="148" y="576"/>
      <point x="148" y="550" type="curve" smooth="yes"/>
      <point x="148" y="524"/>
      <point x="126" y="502"/>
      <point x="100" y="502" type="curve" smooth="yes"/>
      <point x="74" y="502"/>
      <point x="52" y="524"/>
    </contour>
    <contour>
      <point x="352" y="550" type="curve" smooth="yes"/>
      <point x="352" y="576"/>
      <point x="374" y="598"/>
      <point x="400" y="598" type="curve" smooth="yes"/>
      <point x="426" y="598"/>
      <point x="448" y="576"/>
      <point x="448" y="550" type="curve" smooth="yes"/>
      <point x="448" y="524"/>
      <point x="426" y="502"/>
      <point x="400" y="502" type="curve" smooth="yes"/>
      <point x="374" y="502"/>
      <point x="352" y="524"/>
    </contour>
    <contour>
      <point x="52" y="450" type="curve" smooth="yes"/>
      <point x="52" y="476"/>
      <point x="74" y="498"/>
      <point x="100" y="498" type="curve" smooth="yes"/>
      <point x="126" y="498"/>
      <point x="148" y="476"/>
      <point x="148" y="450" type="curve" smooth="yes"/>
      <point x="148" y="424"/>
      <point x="126" y="402"/>
      <point x="100" y="402" type="curve" smooth="yes"/>
      <point x="74" y="402"/>
      <point x="52" y="424"/>
    </contour>
    <contour>
      <point x="352" y="450" type="curve" smooth="yes"/>
      <point x="352" y="476"/>
      <point x="374" y="498"/>
      <point x="400" y="498" type="curve" smooth="yes"/>
      <point x="426" y="498"/>
      <point x="448" y="476"/>
      <point x="448" y="450" type="curve" smooth="yes"/>
      <point x="448" y="424"/>
      <point x="426" y="402"/>
      <point x="400" y="402" type="curve" smooth="yes"/>
      <point x="374" y="402"/>
      <point x="352" y="424"/>
    </contour>
    <contour>
      <point x="152" y="350" type="curve" smooth="yes"/>
      <point x="152" y="376"/>
      <point x="174" y="398"/>
      <point x="200" y="398" type="curve" smooth="yes"/>
      <point x="226" y="398"/>
      <point x="248" y="376"/>
      <point x="248" y="350" type="curve" smooth="yes"/>
      <point x="248" y="324"/>
      <point x="226" y="302"/>
      <point x="200" y="302" type="curve" smooth="yes"/>
      <point x="174" y="302"/>
      <point x="152" y="324"/>
    </contour>
    <contour>
      <point x="252" y="350" type="curve" smooth="yes"/>
      <point x="252" y="376"/>
      <point x="274" y="398"/>
      <point x="300" y="398" type="curve" smooth="yes"/>
      <point x="326" y="398"/>
      <point x="348" y="376"/>
      <point x="348" y="350" type="curve" smooth="yes"/>
      <point x="348" y="324"/>
      <point x="326" y="302"/>
      <point x="300" y="302" type="curve" smooth="yes"/>
      <point x="274" y="302"/>
      <point x="252" y="324"/>
    </contour>
  </outline>
</glyph>
<glyph name="uni00B2" format="2">
  <advance width="400"/>
  <unicode hex="00B2"/>
  <outline>
    <contour>
      <point x="52" y="650" type="curve" smooth="yes"/>
      <point x="52" y="676"/>
      <point x="74" y="698"/>
      <point x="100" y="698" type="curve" smooth="yes"/>
      <point x="126" y="698"/>
      <point x="148" y="676"/>
      <point x="148" y="650" type="curve" smooth="yes"/>
      <point x="148" y="624"/>
      <point x="126" y="602"/>
      <point x="100" y="602" type="curve" smooth="yes"/>
      <point x="74" y="602"/>
      <point x="52" y="624"/>
    </contour>
    <contour>
      <point x="152" y="650" type="curve" smooth="yes"/>
      <point x="152" y="676"/>
      <point x="174" y="698"/>
      <point x="200" y="698" type="curve" smooth="yes"/>
      <point x="226" y="698"/>
      <point x="248" y="676"/>
      <point x="248" y="650" type="curve" smooth="yes"/>
      <point x="248" y="624"/>
      <point x="226" y="602"/>
      <point x="200" y="602" type="curve" smooth="yes"/>
      <point x="174" y="602"/>
      <point x="152" y="624"/>
    </contour>
    <contour>
      <point x="252" y="550" type="curve" smooth="yes"/>
      <point x="252" y="576"/>
      <point x="274" y="598"/>
      <point x="300" y="598" type="curve" smooth="yes"/>
      <point x="326" y="598"/>
      <point x="348" y="576"/>
      <point x="348" y="550" type="curve" smooth="yes"/>
      <point x="348" y="524"/>
      <point x="326" y="502"/>
      <point x="300" y="502" type="curve" smooth="yes"/>
      <point x="274" y="502"/>
      <point x="252" y="524"/>
    </contour>
    <contour>
      <point x="152" y="450" type="curve" smooth="yes"/>
      <point x="152" y="476"/>
      <point x="174" y="498"/>
      <point x="200" y="498" type="curve" smooth="yes"/>
      <point x="226" y="498"/>
      <point x="248" y="476"/>
      <point x="248" y="450" type="curve" smooth="yes"/>
      <point x="248" y="424"/>
      <point x="226" y="402"/>
      <point x="200" y="402" type="curve" smooth="yes"/>
      <point x="174" y="402"/>
      <point x="152" y="424"/>
    </contour>
    <contour>
      <point x="52" y="350" type="curve" smooth="yes"/>
      <point x="52" y="376"/>
      <point x="74" y="398"/>
      <point x="100" y="398" type="curve" smooth="yes"/>
      <point x="126" y="398"/>
      <point x="148" y="376"/>
      <point x="148" y="350" type="curve" smooth="yes"/>
      <point x="148" y="324"/>
      <point x="126" y="302"/>
      <point x="100" y="302" type="curve" smooth="yes"/>
      <point x="74" y="302"/>
      <point x="52" y="324"/>
    </contour>
    <contour>
      <point x="52" y="250" type="curve" smooth="yes"/>
      <point x="52" y="276"/>
      <point x="74" y="298"/>
      <point x="100" y="298" type="curve" smooth="yes"/>
      <point x="126" y="298"/>
      <point x="148" y="276"/>
      <point x="148" y="250" type="curve" smooth="yes"/>
      <point x="148" y="224"/>
      <point x="126" y="202"/>
      <point x="100" y="202" type="curve" smooth="yes"/>
      <point x="74" y="202"/>
      <point x="52" y="224"/>
    </contour>
    <contour>
      <point x="152" y="250" type="curve" smooth="yes"/>
      <point x="152" y="276"/>
      <point x="174" y="298"/>
      <point x="200" y="298" type="curve" smooth="yes"/>
      <point x="226" y="298"/>
      <point x="248" y="276"/>
      <point x="248" y="250" type="curve" smooth="yes"/>
      <point x="248" y="224"/>
      <point x="226" y="202"/>
      <point x="200" y="202" type="curve" smooth="yes"/>
      <point x="174" y="202"/>
      <point x="152" y="224"/>
    </contour>
    <contour>
      <point x="252" y="250" type="curve" smooth="yes"/>
      <point x="252" y="276"/>
      <point x="274" y="298"/>
      <point x="300" y="298" type="curve" smooth="yes"/>
      <point x="326" y="298"/>
      <point x="348" y="276"/>
      <point x="348" y="250" type="curve" smooth="yes"/>
      <point x="348" y="224"/>
      <point x="326" y="202"/>
      <point x="300" y="202" type="curve" smooth="yes"/>
      <point x="274" y="202"/>
      <point x="252" y="224"/>
    </contour>
  </outline>
</glyph>
<glyph name="acute" format="2">
  <advance width="300"/>
  <unicode hex="00B4"/>
  <outline>
    <contour>
      <point x="152" y="650" type="curve" smooth="yes"/>
      <point x="152" y="676"/>
      <point x="174" y="698"/>
      <point x="200" y="698" type="curve" smooth="yes"/>
      <point x="226" y="698"/>
      <point x="248" y="676"/>
      <point x="248" y="650" type="curve" smooth="yes"/>
      <point x="248" y="624"/>
      <point x="226" y="602"/>
      <point x="200" y="602" type="curve" smooth="yes"/>
      <point x="174" y="602"/>
      <point x="152" y="624"/>
    </contour>
    <contour>
      <point x="52" y="550" type="curve" smooth="yes"/>
      <point x="52" y="576"/>
      <point x="74" y="598"/>
      <point x="100" y="598" type="curve" smooth="yes"/>
      <point x="126" y="598"/>
      <point x="148" y="576"/>
      <point x="148" y="550" type="curve" smooth="yes"/>
      <point x="148" y="524"/>
      <point x="126" y="502"/>
      <point x="100" y="502" type="curve" smooth="yes"/>
      <point x="74" y="502"/>
      <point x="52" y="524"/>
    </contour>
  </outline>
</glyph>
<glyph name="periodcentered" format="2">
  <advance width="200"/>
  <unicode hex="00B7"/>
  <outline>
    <contour>
      <point x="52.0" y="350.0" type="curve" smooth="yes"/>
      <point x="52.0" y="376.0"/>
      <point x="74.0" y="398.0"/>
      <point x="100.0" y="398.0" type="curve" smooth="yes"/>
      <point x="126.0" y="398.0"/>
      <point x="148.0" y="376.0"/>
      <point x="148.0" y="350.0" type="curve" smooth="yes"/>
      <point x="148.0" y="324.0"/>
      <point x="126.0" y="302.0"/>
      <point x="100.0" y="302.0" type="curve" smooth="yes"/>
      <point x="74.0" y="302.0"/>
      <point x="52.0" y="324.0"/>
    </contour>
  </outline>
</glyph>
<glyph name="cedilla" format="2">
  <advance width="300"/>
  <unicode hex="00B8"/>
  <outline>
    <contour>
      <point x="152" y="-50" type="curve" smooth="yes"/>
      <point x="152" y="-24"/>
      <point x="174" y="-2"/>
      <point x="200" y="-2" type="curve" smooth="yes"/>
      <point x="226" y="-2"/>
      <point x="248" y="-24"/>
      <point x="248" y="-50" type="curve" smooth="yes"/>
      <point x="248" y="-76"/>
      <point x="226" y="-98"/>
      <point x="200" y="-98" type="curve" smooth="yes"/>
      <point x="174" y="-98"/>
      <point x="152" y="-76"/>
    </contour>
    <contour>
      <point x="52" y="-150" type="curve" smooth="yes"/>
      <point x="52" y="-124"/>
      <point x="74" y="-102"/>
      <point x="100" y="-102" type="curve" smooth="yes"/>
      <point x="126" y="-102"/>
      <point x="148" y="-124"/>
      <point x="148" y="-150" type="curve" smooth="yes"/>
      <point x="148" y="-176"/>
      <point x="126" y="-198"/>
      <point x="100" y="-198" type="curve" smooth="yes"/>
      <point x="74" y="-198"/>
      <point x="52" y="-176"/>
    </contour>
    <contour>
      <point x="152" y="-150" type="curve" smooth="yes"/>
      <point x="152" y="-124"/>
      <point x="174" y="-102"/>
      <point x="200" y="-102" type="curve" smooth="yes"/>
      <point x="226" y="-102"/>
      <point x="248" y="-124"/>
      <point x="248" y="-150" type="curve" smooth="yes"/>
      <point x="248" y="-176"/>
      <point x="226" y="-198"/>
      <point x="200" y="-198" type="curve" smooth="yes"/>
      <point x="174" y="-198"/>
      <point x="152" y="-176"/>
    </contour>
  </outline>
</glyph>
<glyph name="florin" format="2">
  <advance width="700"/>
  <unicode hex="0192"/>
  <outline>
    <contour>
      <point x="352" y="650" type="curve" smooth="yes"/>
      <point x="352" y="676"/>
      <point x="374" y="698"/>
      <point x="400" y="698" type="curve" smooth="yes"/>
      <point x="426" y="698"/>
      <point x="448" y="676"/>
      <point x="448" y="650" type="curve" smooth="yes"/>
      <point x="448" y="624"/>
      <point x="426" y="602"/>
      <point x="400" y="602" type="curve" smooth="yes"/>
      <point x="374" y="602"/>
      <point x="352" y="624"/>
    </contour>
    <contour>
      <point x="452" y="650" type="curve" smooth="yes"/>
      <point x="452" y="676"/>
      <point x="474" y="698"/>
      <point x="500" y="698" type="curve" smooth="yes"/>
      <point x="526" y="698"/>
      <point x="548" y="676"/>
      <point x="548" y="650" type="curve" smooth="yes"/>
      <point x="548" y="624"/>
      <point x="526" y="602"/>
      <point x="500" y="602" type="curve" smooth="yes"/>
      <point x="474" y="602"/>
      <point x="452" y="624"/>
    </contour>
    <contour>
      <point x="252" y="550" type="curve" smooth="yes"/>
      <point x="252" y="576"/>
      <point x="274" y="598"/>
      <point x="300" y="598" type="curve" smooth="yes"/>
      <point x="326" y="598"/>
      <point x="348" y="576"/>
      <point x="348" y="550" type="curve" smooth="yes"/>
      <point x="348" y="524"/>
      <point x="326" y="502"/>
      <point x="300" y="502" type="curve" smooth="yes"/>
      <point x="274" y="502"/>
      <point x="252" y="524"/>
    </contour>
    <contour>
      <point x="552" y="550" type="curve" smooth="yes"/>
      <point x="552" y="576"/>
      <point x="574" y="598"/>
      <point x="600" y="598" type="curve" smooth="yes"/>
      <point x="626" y="598"/>
      <point x="648" y="576"/>
      <point x="648" y="550" type="curve" smooth="yes"/>
      <point x="648" y="524"/>
      <point x="626" y="502"/>
      <point x="600" y="502" type="curve" smooth="yes"/>
      <point x="574" y="502"/>
      <point x="552" y="524"/>
    </contour>
    <contour>
      <point x="252" y="450" type="curve" smooth="yes"/>
      <point x="252" y="476"/>
      <point x="274" y="498"/>
      <point x="300" y="498" type="curve" smooth="yes"/>
      <point x="326" y="498"/>
      <point x="348" y="476"/>
      <point x="348" y="450" type="curve" smooth="yes"/>
      <point x="348" y="424"/>
      <point x="326" y="402"/>
      <point x="300" y="402" type="curve" smooth="yes"/>
      <point x="274" y="402"/>
      <point x="252" y="424"/>
    </contour>
    <contour>
      <point x="152" y="350" type="curve" smooth="yes"/>
      <point x="152" y="376"/>
      <point x="174" y="398"/>
      <point x="200" y="398" type="curve" smooth="yes"/>
      <point x="226" y="398"/>
      <point x="248" y="376"/>
      <point x="248" y="350" type="curve" smooth="yes"/>
      <point x="248" y="324"/>
      <point x="226" y="302"/>
      <point x="200" y="302" type="curve" smooth="yes"/>
      <point x="174" y="302"/>
      <point x="152" y="324"/>
    </contour>
    <contour>
      <point x="252" y="350" type="curve" smooth="yes"/>
      <point x="252" y="376"/>
      <point x="274" y="398"/>
      <point x="300" y="398" type="curve" smooth="yes"/>
      <point x="326" y="398"/>
      <point x="348" y="376"/>
      <point x="348" y="350" type="curve" smooth="yes"/>
      <point x="348" y="324"/>
      <point x="326" y="302"/>
      <point x="300" y="302" type="curve" smooth="yes"/>
      <point x="274" y="302"/>
      <point x="252" y="324"/>
    </contour>
    <contour>
      <point x="352" y="350" type="curve" smooth="yes"/>
      <point x="352" y="376"/>
      <point x="374" y="398"/>
      <point x="400" y="398" type="curve" smooth="yes"/>
      <point x="426" y="398"/>
      <point x="448" y="376"/>
      <point x="448" y="350" type="curve" smooth="yes"/>
      <point x="448" y="324"/>
      <point x="426" y="302"/>
      <point x="400" y="302" type="curve" smooth="yes"/>
      <point x="374" y="302"/>
      <point x="352" y="324"/>
    </contour>
    <contour>
      <point x="452" y="350" type="curve" smooth="yes"/>
      <point x="452" y="376"/>
      <point x="474" y="398"/>
      <point x="500" y="398" type="curve" smooth="yes"/>
      <point x="526" y="398"/>
      <point x="548" y="376"/>
      <point x="548" y="350" type="curve" smooth="yes"/>
      <point x="548" y="324"/>
      <point x="526" y="302"/>
      <point x="500" y="302" type="curve" smooth="yes"/>
      <point x="474" y="302"/>
      <point x="452" y="324"/>
    </contour>
    <contour>
      <point x="252" y="250" type="curve" smooth="yes"/>
      <point x="252" y="276"/>
      <point x="274" y="298"/>
      <point x="300" y="298" type="curve" smooth="yes"/>
      <point x="326" y="298"/>
      <point x="348" y="276"/>
      <point x="348" y="250" type="curve" smooth="yes"/>
      <point x="348" y="224"/>
      <point x="326" y="202"/>
      <point x="300" y="202" type="curve" smooth="yes"/>
      <point x="274" y="202"/>
      <point x="252" y="224"/>
    </contour>
    <contour>
      <point x="252" y="150" type="curve" smooth="yes"/>
      <point x="252" y="176"/>
      <point x="274" y="198"/>
      <point x="300" y="198" type="curve" smooth="yes"/>
      <point x="326" y="198"/>
      <point x="348" y="176"/>
      <point x="348" y="150" type="curve" smooth="yes"/>
      <point x="348" y="124"/>
      <point x="326" y="102"/>
      <point x="300" y="102" type="curve" smooth="yes"/>
      <point x="274" y="102"/>
      <point x="252" y="124"/>
    </contour>
    <contour>
      <point x="252" y="50" type="curve" smooth="yes"/>
      <point x="252" y="76"/>
      <point x="274" y="98"/>
      <point x="300" y="98" type="curve" smooth="yes"/>
      <point x="326" y="98"/>
      <point x="348" y="76"/>
      <point x="348" y="50" type="curve" smooth="yes"/>
      <point x="348" y="24"/>
      <point x="326" y="2"/>
      <point x="300" y="2" type="curve" smooth="yes"/>
      <point x="274" y="2"/>
      <point x="252" y="24"/>
    </contour>
    <contour>
      <point x="252" y="-50" type="curve" smooth="yes"/>
      <point x="252" y="-24"/>
      <point x="274" y="-2"/>
      <point x="300" y="-2" type="curve" smooth="yes"/>
      <point x="326" y="-2"/>
      <point x="348" y="-24"/>
      <point x="348" y="-50" type="curve" smooth="yes"/>
      <point x="348" y="-76"/>
      <point x="326" y="-98"/>
      <point x="300" y="-98" type="curve" smooth="yes"/>
      <point x="274" y="-98"/>
      <point x="252" y="-76"/>
    </contour>
    <contour>
      <point x="52" y="-150" type="curve" smooth="yes"/>
      <point x="52" y="-124"/>
      <point x="74" y="-102"/>
      <point x="100" y="-102" type="curve" smooth="yes"/>
      <point x="126" y="-102"/>
      <point x="148" y="-124"/>
      <point x="148" y="-150" type="curve" smooth="yes"/>
      <point x="148" y="-176"/>
      <point x="126" y="-198"/>
      <point x="100" y="-198" type="curve" smooth="yes"/>
      <point x="74" y="-198"/>
      <point x="52" y="-176"/>
    </contour>
    <contour>
      <point x="152" y="-150" type="curve" smooth="yes"/>
      <point x="152" y="-124"/>
      <point x="174" y="-102"/>
      <point x="200" y="-102" type="curve" smooth="yes"/>
      <point x="226" y="-102"/>
      <point x="248" y="-124"/>
      <point x="248" y="-150" type="curve" smooth="yes"/>
      <point x="248" y="-176"/>
      <point x="226" y="-198"/>
      <point x="200" y="-198" type="curve" smooth="yes"/>
      <point x="174" y="-198"/>
      <point x="152" y="-176"/>
    </contour>
  </outline>
</glyph>
<glyph name="circumflex" format="2">
  <advance width="400"/>
  <unicode hex="02C6"/>
  <outline>
    <contour>
      <point x="152" y="750" type="curve" smooth="yes"/>
      <point x="152" y="776"/>
      <point x="174" y="798"/>
      <point x="200" y="798" type="curve" smooth="yes"/>
      <point x="226" y="798"/>
      <point x="248" y="776"/>
      <point x="248" y="750" type="curve" smooth="yes"/>
      <point x="248" y="724"/>
      <point x="226" y="702"/>
      <point x="200" y="702" type="curve" smooth="yes"/>
      <point x="174" y="702"/>
      <point x="152" y="724"/>
    </contour>
    <contour>
      <point x="52" y="650" type="curve" smooth="yes"/>
      <point x="52" y="676"/>
      <point x="74" y="698"/>
      <point x="100" y="698" type="curve" smooth="yes"/>
      <point x="126" y="698"/>
      <point x="148" y="676"/>
      <point x="148" y="650" type="curve" smooth="yes"/>
      <point x="148" y="624"/>
      <point x="126" y="602"/>
      <point x="100" y="602" type="curve" smooth="yes"/>
      <point x="74" y="602"/>
      <point x="52" y="624"/>
    </contour>
    <contour>
      <point x="252" y="650" type="curve" smooth="yes"/>
      <point x="252" y="676"/>
      <point x="274" y="698"/>
      <point x="300" y="698" type="curve" smooth="yes"/>
      <point x="326" y="698"/>
      <point x="348" y="676"/>
      <point x="348" y="650" type="curve" smooth="yes"/>
      <point x="348" y="624"/>
      <point x="326" y="602"/>
      <point x="300" y="602" type="curve" smooth="yes"/>
      <point x="274" y="602"/>
      <point x="252" y="624"/>
    </contour>
  </outline>
</glyph>
<glyph name="caron" format="2">
  <advance width="400"/>
  <unicode hex="02C7"/>
  <outline>
    <contour>
      <point x="52" y="750" type="curve" smooth="yes"/>
      <point x="52" y="776"/>
      <point x="74" y="798"/>
      <point x="100" y="798" type="curve" smooth="yes"/>
      <point x="126" y="798"/>
      <point x="148" y="776"/>
      <point x="148" y="750" type="curve" smooth="yes"/>
      <point x="148" y="724"/>
      <point x="126" y="702"/>
      <point x="100" y="702" type="curve" smooth="yes"/>
      <point x="74" y="702"/>
      <point x="52" y="724"/>
    </contour>
    <contour>
      <point x="252" y="750" type="curve" smooth="yes"/>
      <point x="252" y="776"/>
      <point x="274" y="798"/>
      <point x="300" y="798" type="curve" smooth="yes"/>
      <point x="326" y="798"/>
      <point x="348" y="776"/>
      <point x="348" y="750" type="curve" smooth="yes"/>
      <point x="348" y="724"/>
      <point x="326" y="702"/>
      <point x="300" y="702" type="curve" smooth="yes"/>
      <point x="274" y="702"/>
      <point x="252" y="724"/>
    </contour>
    <contour>
      <point x="152" y="650" type="curve" smooth="yes"/>
      <point x="152" y="676"/>
      <point x="174" y="698"/>
      <point x="200" y="698" type="curve" smooth="yes"/>
      <point x="226" y="698"/>
      <point x="248" y="676"/>
      <point x="248" y="650" type="curve" smooth="yes"/>
      <point x="248" y="624"/>
      <point x="226" y="602"/>
      <point x="200" y="602" type="curve" smooth="yes"/>
      <point x="174" y="602"/>
      <point x="152" y="624"/>
    </contour>
  </outline>
</glyph>
<glyph name="dotaccent" format="2">
  <advance width="200"/>
  <unicode hex="02D9"/>
  <outline>
    <contour>
      <point x="52" y="650" type="curve" smooth="yes"/>
      <point x="52" y="676"/>
      <point x="74" y="698"/>
      <point x="100" y="698" type="curve" smooth="yes"/>
      <point x="126" y="698"/>
      <point x="148" y="676"/>
      <point x="148" y="650" type="curve" smooth="yes"/>
      <point x="148" y="624"/>
      <point x="126" y="602"/>
      <point x="100" y="602" type="curve" smooth="yes"/>
      <point x="74" y="602"/>
      <point x="52" y="624"/>
    </contour>
  </outline>
</glyph>
<glyph name="tilde" format="2">
  <advance width="600"/>
  <unicode hex="02DC"/>
  <outline>
    <contour>
      <point x="152" y="750" type="curve" smooth="yes"/>
      <point x="152" y="776"/>
      <point x="174" y="798"/>
      <point x="200" y="798" type="curve" smooth="yes"/>
      <point x="226" y="798"/>
      <point x="248" y="776"/>
      <point x="248" y="750" type="curve" smooth="yes"/>
      <point x="248" y="724"/>
      <point x="226" y="702"/>
      <point x="200" y="702" type="curve" smooth="yes"/>
      <point x="174" y="702"/>
      <point x="152" y="724"/>
    </contour>
    <contour>
      <point x="252" y="750" type="curve" smooth="yes"/>
      <point x="252" y="776"/>
      <point x="274" y="798"/>
      <point x="300" y="798" type="curve" smooth="yes"/>
      <point x="326" y="798"/>
      <point x="348" y="776"/>
      <point x="348" y="750" type="curve" smooth="yes"/>
      <point x="348" y="724"/>
      <point x="326" y="702"/>
      <point x="300" y="702" type="curve" smooth="yes"/>
      <point x="274" y="702"/>
      <point x="252" y="724"/>
    </contour>
    <contour>
      <point x="452" y="750" type="curve" smooth="yes"/>
      <point x="452" y="776"/>
      <point x="474" y="798"/>
      <point x="500" y="798" type="curve" smooth="yes"/>
      <point x="526" y="798"/>
      <point x="548" y="776"/>
      <point x="548" y="750" type="curve" smooth="yes"/>
      <point x="548" y="724"/>
      <point x="526" y="702"/>
      <point x="500" y="702" type="curve" smooth="yes"/>
      <point x="474" y="702"/>
      <point x="452" y="724"/>
    </contour>
    <contour>
      <point x="52" y="650" type="curve" smooth="yes"/>
      <point x="52" y="676"/>
      <point x="74" y="698"/>
      <point x="100" y="698" type="curve" smooth="yes"/>
      <point x="126" y="698"/>
      <point x="148" y="676"/>
      <point x="148" y="650" type="curve" smooth="yes"/>
      <point x="148" y="624"/>
      <point x="126" y="602"/>
      <point x="100" y="602" type="curve" smooth="yes"/>
      <point x="74" y="602"/>
      <point x="52" y="624"/>
    </contour>
    <contour>
      <point x="252" y="650" type="curve" smooth="yes"/>
      <point x="252" y="676"/>
      <point x="274" y="698"/>
      <point x="300" y="698" type="curve" smooth="yes"/>
      <point x="326" y="698"/>
      <point x="348" y="676"/>
      <point x="348" y="650" type="curve" smooth="yes"/>
      <point x="348" y="624"/>
      <point x="326" y="602"/>
      <point x="300" y="602" type="curve" smooth="yes"/>
      <point x="274" y="602"/>
      <point x="252" y="624"/>
    </contour>
    <contour>
      <point x="352" y="650" type="curve" smooth="yes"/>
      <point x="352" y="676"/>
      <point x="374" y="698"/>
      <point x="400" y="698" type="curve" smooth="yes"/>
      <point x="426" y="698"/>
      <point x="448" y="676"/>
      <point x="448" y="650" type="curve" smooth="yes"/>
      <point x="448" y="624"/>
      <point x="426" y="602"/>
      <point x="400" y="602" type="curve" smooth="yes"/>
      <point x="374" y="602"/>
      <point x="352" y="624"/>
    </contour>
  </outline>
</glyph>
<glyph name="uni0307" format="2">
  <advance width="0"/>
  <unicode hex="0307"/>
  <anchor x="0" y="600" name="_marks_above"/>
  <outline>
    <contour>
      <point x="-48" y="650" type="curve" smooth="yes"/>
      <point x="-48" y="676"/>
      <point x="-26" y="698"/>
      <point x="0" y="698" type="curve" smooth="yes"/>
      <point x="26" y="698"/>
      <point x="48" y="676"/>
      <point x="48" y="650" type="curve" smooth="yes"/>
      <point x="48" y="624"/>
      <point x="26" y="602"/>
      <point x="0" y="602" type="curve" smooth="yes"/>
      <point x="-26" y="602"/>
      <point x="-48" y="624"/>
    </contour>
  </outline>
</glyph>
<glyph name="uni0328" format="2">
  <unicode hex="0328"/>
  <outline>
    <contour>
      <point x="52.0" y="-150.0" type="curve" smooth="yes"/>
      <point x="52.0" y="-124.0"/>
      <point x="74.0" y="-102.0"/>
      <point x="100.0" y="-102.0" type="curve" smooth="yes"/>
      <point x="126.0" y="-102.0"/>
      <point x="148.0" y="-124.0"/>
      <point x="148.0" y="-150.0" type="curve" smooth="yes"/>
      <point x="148.0" y="-176.0"/>
      <point x="126.0" y="-198.0"/>
      <point x="100.0" y="-198.0" type="curve" smooth="yes"/>
      <point x="74.0" y="-198.0"/>
      <point x="52.0" y="-176.0"/>
    </contour>
    <contour>
      <point x="-48.0" y="-150.0" type="curve" smooth="yes"/>
      <point x="-48.0" y="-124.0"/>
      <point x="-26.0" y="-102.0"/>
      <point x="0.0" y="-102.0" type="curve" smooth="yes"/>
      <point x="26.0" y="-102.0"/>
      <point x="48.0" y="-124.0"/>
      <point x="48.0" y="-150.0" type="curve" smooth="yes"/>
      <point x="48.0" y="-176.0"/>
      <point x="26.0" y="-198.0"/>
      <point x="0.0" y="-198.0" type="curve" smooth="yes"/>
      <point x="-26.0" y="-198.0"/>
      <point x="-48.0" y="-176.0"/>
    </contour>
    <contour>
      <point x="-48.0" y="-50.0" type="curve" smooth="yes"/>
      <point x="-48.0" y="-24.0"/>
      <point x="-26.0" y="-2.0"/>
      <point x="0.0" y="-2.0" type="curve" smooth="yes"/>
      <point x="26.0" y="-2.0"/>
      <point x="48.0" y="-24.0"/>
      <point x="48.0" y="-50.0" type="curve" smooth="yes"/>
      <point x="48.0" y="-76.0"/>
      <point x="26.0" y="-98.0"/>
      <point x="0.0" y="-98.0" type="curve" smooth="yes"/>
      <point x="-26.0" y="-98.0"/>
      <point x="-48.0" y="-76.0"/>
    </contour>
  </outline>
</glyph>
<glyph name="emdash" format="2">
  <advance width="600"/>
  <unicode hex="2014"/>
  <outline>
    <contour>
      <point x="2.0" y="350.0" type="curve" smooth="yes"/>
      <point x="2.0" y="376.0"/>
      <point x="24.0" y="398.0"/>
      <point x="50.0" y="398.0" type="curve" smooth="yes"/>
      <point x="76.0" y="398.0"/>
      <point x="98.0" y="376.0"/>
      <point x="98.0" y="350.0" type="curve" smooth="yes"/>
      <point x="98.0" y="324.0"/>
      <point x="76.0" y="302.0"/>
      <point x="50.0" y="302.0" type="curve" smooth="yes"/>
      <point x="24.0" y="302.0"/>
      <point x="2.0" y="324.0"/>
    </contour>
    <contour>
      <point x="102.0" y="350.0" type="curve" smooth="yes"/>
      <point x="102.0" y="376.0"/>
      <point x="124.0" y="398.0"/>
      <point x="150.0" y="398.0" type="curve" smooth="yes"/>
      <point x="176.0" y="398.0"/>
      <point x="198.0" y="376.0"/>
      <point x="198.0" y="350.0" type="curve" smooth="yes"/>
      <point x="198.0" y="324.0"/>
      <point x="176.0" y="302.0"/>
      <point x="150.0" y="302.0" type="curve" smooth="yes"/>
      <point x="124.0" y="302.0"/>
      <point x="102.0" y="324.0"/>
    </contour>
    <contour>
      <point x="202.0" y="350.0" type="curve" smooth="yes"/>
      <point x="202.0" y="376.0"/>
      <point x="224.0" y="398.0"/>
      <point x="250.0" y="398.0" type="curve" smooth="yes"/>
      <point x="276.0" y="398.0"/>
      <point x="298.0" y="376.0"/>
      <point x="298.0" y="350.0" type="curve" smooth="yes"/>
      <point x="298.0" y="324.0"/>
      <point x="276.0" y="302.0"/>
      <point x="250.0" y="302.0" type="curve" smooth="yes"/>
      <point x="224.0" y="302.0"/>
      <point x="202.0" y="324.0"/>
    </contour>
    <contour>
      <point x="302.0" y="350.0" type="curve" smooth="yes"/>
      <point x="302.0" y="376.0"/>
      <point x="324.0" y="398.0"/>
      <point x="350.0" y="398.0" type="curve" smooth="yes"/>
      <point x="376.0" y="398.0"/>
      <point x="398.0" y="376.0"/>
      <point x="398.0" y="350.0" type="curve" smooth="yes"/>
      <point x="398.0" y="324.0"/>
      <point x="376.0" y="302.0"/>
      <point x="350.0" y="302.0" type="curve" smooth="yes"/>
      <point x="324.0" y="302.0"/>
      <point x="302.0" y="324.0"/>
    </contour>
    <contour>
      <point x="402.0" y="350.0" type="curve" smooth="yes"/>
      <point x="402.0" y="376.0"/>
      <point x="424.0" y="398.0"/>
      <point x="450.0" y="398.0" type="curve" smooth="yes"/>
      <point x="476.0" y="398.0"/>
      <point x="498.0" y="376.0"/>
      <point x="498.0" y="350.0" type="curve" smooth="yes"/>
      <point x="498.0" y="324.0"/>
      <point x="476.0" y="302.0"/>
      <point x="450.0" y="302.0" type="curve" smooth="yes"/>
      <point x="424.0" y="302.0"/>
      <point x="402.0" y="324.0"/>
    </contour>
    <contour>
      <point x="502.0" y="350.0" type="curve" smooth="yes"/>
      <point x="502.0" y="376.0"/>
      <point x="524.0" y="398.0"/>
      <point x="550.0" y="398.0" type="curve" smooth="yes"/>
      <point x="576.0" y="398.0"/>
      <point x="598.0" y="376.0"/>
      <point x="598.0" y="350.0" type="curve" smooth="yes"/>
      <point x="598.0" y="324.0"/>
      <point x="576.0" y="302.0"/>
      <point x="550.0" y="302.0" type="curve" smooth="yes"/>
      <point x="524.0" y="302.0"/>
      <point x="502.0" y="324.0"/>
    </contour>
  </outline>
</glyph>
<glyph name="bullet" format="2">
  <advance width="300"/>
  <unicode hex="2022"/>
  <outline>
    <contour>
      <point x="52" y="450" type="curve" smooth="yes"/>
      <point x="52" y="476"/>
      <point x="74" y="498"/>
      <point x="100" y="498" type="curve" smooth="yes"/>
      <point x="126" y="498"/>
      <point x="148" y="476"/>
      <point x="148" y="450" type="curve" smooth="yes"/>
      <point x="148" y="424"/>
      <point x="126" y="402"/>
      <point x="100" y="402" type="curve" smooth="yes"/>
      <point x="74" y="402"/>
      <point x="52" y="424"/>
    </contour>
    <contour>
      <point x="152" y="450" type="curve" smooth="yes"/>
      <point x="152" y="476"/>
      <point x="174" y="498"/>
      <point x="200" y="498" type="curve" smooth="yes"/>
      <point x="226" y="498"/>
      <point x="248" y="476"/>
      <point x="248" y="450" type="curve" smooth="yes"/>
      <point x="248" y="424"/>
      <point x="226" y="402"/>
      <point x="200" y="402" type="curve" smooth="yes"/>
      <point x="174" y="402"/>
      <point x="152" y="424"/>
    </contour>
    <contour>
      <point x="52" y="350" type="curve" smooth="yes"/>
      <point x="52" y="376"/>
      <point x="74" y="398"/>
      <point x="100" y="398" type="curve" smooth="yes"/>
      <point x="126" y="398"/>
      <point x="148" y="376"/>
      <point x="148" y="350" type="curve" smooth="yes"/>
      <point x="148" y="324"/>
      <point x="126" y="302"/>
      <point x="100" y="302" type="curve" smooth="yes"/>
      <point x="74" y="302"/>
      <point x="52" y="324"/>
    </contour>
    <contour>
      <point x="152" y="350" type="curve" smooth="yes"/>
      <point x="152" y="376"/>
      <point x="174" y="398"/>
      <point x="200" y="398" type="curve" smooth="yes"/>
      <point x="226" y="398"/>
      <point x="248" y="376"/>
      <point x="248" y="350" type="curve" smooth="yes"/>
      <point x="248" y="324"/>
      <point x="226" y="302"/>
      <point x="200" y="302" type="curve" smooth="yes"/>
      <point x="174" y="302"/>
      <point x="152" y="324"/>
    </contour>
  </outline>
</glyph>
<glyph name="ellipsis" format="2">
  <advance width="600"/>
  <unicode hex="2026"/>
  <outline>
    <contour>
      <point x="52" y="50" type="curve" smooth="yes"/>
      <point x="52" y="76"/>
      <point x="74" y="98"/>
      <point x="100" y="98" type="curve" smooth="yes"/>
      <point x="126" y="98"/>
      <point x="148" y="76"/>
      <point x="148" y="50" type="curve" smooth="yes"/>
      <point x="148" y="24"/>
      <point x="126" y="2"/>
      <point x="100" y="2" type="curve" smooth="yes"/>
      <point x="74" y="2"/>
      <point x="52" y="24"/>
    </contour>
    <contour>
      <point x="452" y="50" type="curve" smooth="yes"/>
      <point x="452" y="76"/>
      <point x="474" y="98"/>
      <point x="500" y="98" type="curve" smooth="yes"/>
      <point x="526" y="98"/>
      <point x="548" y="76"/>
      <point x="548" y="50" type="curve" smooth="yes"/>
      <point x="548" y="24"/>
      <point x="526" y="2"/>
      <point x="500" y="2" type="curve" smooth="yes"/>
      <point x="474" y="2"/>
      <point x="452" y="24"/>
    </contour>
    <contour>
      <point x="252" y="50" type="curve" smooth="yes"/>
      <point x="252" y="76"/>
      <point x="274" y="98"/>
      <point x="300" y="98" type="curve" smooth="yes"/>
      <point x="326" y="98"/>
      <point x="348" y="76"/>
      <point x="348" y="50" type="curve" smooth="yes"/>
      <point x="348" y="24"/>
      <point x="326" y="2"/>
      <point x="300" y="2" type="curve" smooth="yes"/>
      <point x="274" y="2"/>
      <point x="252" y="24"/>
    </contour>
  </outline>
</glyph>
<glyph name="perthousand" format="2">
  <advance width="900"/>
  <unicode hex="2030"/>
  <outline>
    <contour>
      <point x="452" y="50" type="curve" smooth="yes"/>
      <point x="452" y="76"/>
      <point x="474" y="98"/>
      <point x="500" y="98" type="curve" smooth="yes"/>
      <point x="526" y="98"/>
      <point x="548" y="76"/>
      <point x="548" y="50" type="curve" smooth="yes"/>
      <point x="548" y="24"/>
      <point x="526" y="2"/>
      <point x="500" y="2" type="curve" smooth="yes"/>
      <point x="474" y="2"/>
      <point x="452" y="24"/>
    </contour>
    <contour>
      <point x="352" y="50" type="curve" smooth="yes"/>
      <point x="352" y="76"/>
      <point x="374" y="98"/>
      <point x="400" y="98" type="curve" smooth="yes"/>
      <point x="426" y="98"/>
      <point x="448" y="76"/>
      <point x="448" y="50" type="curve" smooth="yes"/>
      <point x="448" y="24"/>
      <point x="426" y="2"/>
      <point x="400" y="2" type="curve" smooth="yes"/>
      <point x="374" y="2"/>
      <point x="352" y="24"/>
    </contour>
    <contour>
      <point x="452" y="150" type="curve" smooth="yes"/>
      <point x="452" y="176"/>
      <point x="474" y="198"/>
      <point x="500" y="198" type="curve" smooth="yes"/>
      <point x="526" y="198"/>
      <point x="548" y="176"/>
      <point x="548" y="150" type="curve" smooth="yes"/>
      <point x="548" y="124"/>
      <point x="526" y="102"/>
      <point x="500" y="102" type="curve" smooth="yes"/>
      <point x="474" y="102"/>
      <point x="452" y="124"/>
    </contour>
    <contour>
      <point x="352" y="150" type="curve" smooth="yes"/>
      <point x="352" y="176"/>
      <point x="374" y="198"/>
      <point x="400" y="198" type="curve" smooth="yes"/>
      <point x="426" y="198"/>
      <point x="448" y="176"/>
      <point x="448" y="150" type="curve" smooth="yes"/>
      <point x="448" y="124"/>
      <point x="426" y="102"/>
      <point x="400" y="102" type="curve" smooth="yes"/>
      <point x="374" y="102"/>
      <point x="352" y="124"/>
    </contour>
    <contour>
      <point x="52" y="150" type="curve" smooth="yes"/>
      <point x="52" y="176"/>
      <point x="74" y="198"/>
      <point x="100" y="198" type="curve" smooth="yes"/>
      <point x="126" y="198"/>
      <point x="148" y="176"/>
      <point x="148" y="150" type="curve" smooth="yes"/>
      <point x="148" y="124"/>
      <point x="126" y="102"/>
      <point x="100" y="102" type="curve" smooth="yes"/>
      <point x="74" y="102"/>
      <point x="52" y="124"/>
    </contour>
    <contour>
      <point x="152" y="250" type="curve" smooth="yes"/>
      <point x="152" y="276"/>
      <point x="174" y="298"/>
      <point x="200" y="298" type="curve" smooth="yes"/>
      <point x="226" y="298"/>
      <point x="248" y="276"/>
      <point x="248" y="250" type="curve" smooth="yes"/>
      <point x="248" y="224"/>
      <point x="226" y="202"/>
      <point x="200" y="202" type="curve" smooth="yes"/>
      <point x="174" y="202"/>
      <point x="152" y="224"/>
    </contour>
    <contour>
      <point x="252" y="350" type="curve" smooth="yes"/>
      <point x="252" y="376"/>
      <point x="274" y="398"/>
      <point x="300" y="398" type="curve" smooth="yes"/>
      <point x="326" y="398"/>
      <point x="348" y="376"/>
      <point x="348" y="350" type="curve" smooth="yes"/>
      <point x="348" y="324"/>
      <point x="326" y="302"/>
      <point x="300" y="302" type="curve" smooth="yes"/>
      <point x="274" y="302"/>
      <point x="252" y="324"/>
    </contour>
    <contour>
      <point x="352" y="450" type="curve" smooth="yes"/>
      <point x="352" y="476"/>
      <point x="374" y="498"/>
      <point x="400" y="498" type="curve" smooth="yes"/>
      <point x="426" y="498"/>
      <point x="448" y="476"/>
      <point x="448" y="450" type="curve" smooth="yes"/>
      <point x="448" y="424"/>
      <point x="426" y="402"/>
      <point x="400" y="402" type="curve" smooth="yes"/>
      <point x="374" y="402"/>
      <point x="352" y="424"/>
    </contour>
    <contour>
      <point x="452" y="550" type="curve" smooth="yes"/>
      <point x="452" y="576"/>
      <point x="474" y="598"/>
      <point x="500" y="598" type="curve" smooth="yes"/>
      <point x="526" y="598"/>
      <point x="548" y="576"/>
      <point x="548" y="550" type="curve" smooth="yes"/>
      <point x="548" y="524"/>
      <point x="526" y="502"/>
      <point x="500" y="502" type="curve" smooth="yes"/>
      <point x="474" y="502"/>
      <point x="452" y="524"/>
    </contour>
    <contour>
      <point x="152" y="550" type="curve" smooth="yes"/>
      <point x="152" y="576"/>
      <point x="174" y="598"/>
      <point x="200" y="598" type="curve" smooth="yes"/>
      <point x="226" y="598"/>
      <point x="248" y="576"/>
      <point x="248" y="550" type="curve" smooth="yes"/>
      <point x="248" y="524"/>
      <point x="226" y="502"/>
      <point x="200" y="502" type="curve" smooth="yes"/>
      <point x="174" y="502"/>
      <point x="152" y="524"/>
    </contour>
    <contour>
      <point x="52" y="550" type="curve" smooth="yes"/>
      <point x="52" y="576"/>
      <point x="74" y="598"/>
      <point x="100" y="598" type="curve" smooth="yes"/>
      <point x="126" y="598"/>
      <point x="148" y="576"/>
      <point x="148" y="550" type="curve" smooth="yes"/>
      <point x="148" y="524"/>
      <point x="126" y="502"/>
      <point x="100" y="502" type="curve" smooth="yes"/>
      <point x="74" y="502"/>
      <point x="52" y="524"/>
    </contour>
    <contour>
      <point x="152" y="650" type="curve" smooth="yes"/>
      <point x="152" y="676"/>
      <point x="174" y="698"/>
      <point x="200" y="698" type="curve" smooth="yes"/>
      <point x="226" y="698"/>
      <point x="248" y="676"/>
      <point x="248" y="650" type="curve" smooth="yes"/>
      <point x="248" y="624"/>
      <point x="226" y="602"/>
      <point x="200" y="602" type="curve" smooth="yes"/>
      <point x="174" y="602"/>
      <point x="152" y="624"/>
    </contour>
    <contour>
      <point x="52" y="650" type="curve" smooth="yes"/>
      <point x="52" y="676"/>
      <point x="74" y="698"/>
      <point x="100" y="698" type="curve" smooth="yes"/>
      <point x="126" y="698"/>
      <point x="148" y="676"/>
      <point x="148" y="650" type="curve" smooth="yes"/>
      <point x="148" y="624"/>
      <point x="126" y="602"/>
      <point x="100" y="602" type="curve" smooth="yes"/>
      <point x="74" y="602"/>
      <point x="52" y="624"/>
    </contour>
    <contour>
      <point x="752" y="50" type="curve" smooth="yes"/>
      <point x="752" y="76"/>
      <point x="774" y="98"/>
      <point x="800" y="98" type="curve" smooth="yes"/>
      <point x="826" y="98"/>
      <point x="848" y="76"/>
      <point x="848" y="50" type="curve" smooth="yes"/>
      <point x="848" y="24"/>
      <point x="826" y="2"/>
      <point x="800" y="2" type="curve" smooth="yes"/>
      <point x="774" y="2"/>
      <point x="752" y="24"/>
    </contour>
    <contour>
      <point x="652" y="50" type="curve" smooth="yes"/>
      <point x="652" y="76"/>
      <point x="674" y="98"/>
      <point x="700" y="98" type="curve" smooth="yes"/>
      <point x="726" y="98"/>
      <point x="748" y="76"/>
      <point x="748" y="50" type="curve" smooth="yes"/>
      <point x="748" y="24"/>
      <point x="726" y="2"/>
      <point x="700" y="2" type="curve" smooth="yes"/>
      <point x="674" y="2"/>
      <point x="652" y="24"/>
    </contour>
    <contour>
      <point x="752" y="150" type="curve" smooth="yes"/>
      <point x="752" y="176"/>
      <point x="774" y="198"/>
      <point x="800" y="198" type="curve" smooth="yes"/>
      <point x="826" y="198"/>
      <point x="848" y="176"/>
      <point x="848" y="150" type="curve" smooth="yes"/>
      <point x="848" y="124"/>
      <point x="826" y="102"/>
      <point x="800" y="102" type="curve" smooth="yes"/>
      <point x="774" y="102"/>
      <point x="752" y="124"/>
    </contour>
    <contour>
      <point x="652" y="150" type="curve" smooth="yes"/>
      <point x="652" y="176"/>
      <point x="674" y="198"/>
      <point x="700" y="198" type="curve" smooth="yes"/>
      <point x="726" y="198"/>
      <point x="748" y="176"/>
      <point x="748" y="150" type="curve" smooth="yes"/>
      <point x="748" y="124"/>
      <point x="726" y="102"/>
      <point x="700" y="102" type="curve" smooth="yes"/>
      <point x="674" y="102"/>
      <point x="652" y="124"/>
    </contour>
  </outline>
</glyph>
<glyph name="guilsinglright" format="2">
  <advance width="300"/>
  <unicode hex="203A"/>
  <outline>
    <contour>
      <point x="52" y="450" type="curve" smooth="yes"/>
      <point x="52" y="476"/>
      <point x="74" y="498"/>
      <point x="100" y="498" type="curve" smooth="yes"/>
      <point x="126" y="498"/>
      <point x="148" y="476"/>
      <point x="148" y="450" type="curve" smooth="yes"/>
      <point x="148" y="424"/>
      <point x="126" y="402"/>
      <point x="100" y="402" type="curve" smooth="yes"/>
      <point x="74" y="402"/>
      <point x="52" y="424"/>
    </contour>
    <contour>
      <point x="152" y="350" type="curve" smooth="yes"/>
      <point x="152" y="376"/>
      <point x="174" y="398"/>
      <point x="200" y="398" type="curve" smooth="yes"/>
      <point x="226" y="398"/>
      <point x="248" y="376"/>
      <point x="248" y="350" type="curve" smooth="yes"/>
      <point x="248" y="324"/>
      <point x="226" y="302"/>
      <point x="200" y="302" type="curve" smooth="yes"/>
      <point x="174" y="302"/>
      <point x="152" y="324"/>
    </contour>
    <contour>
      <point x="52" y="250" type="curve" smooth="yes"/>
      <point x="52" y="276"/>
      <point x="74" y="298"/>
      <point x="100" y="298" type="curve" smooth="yes"/>
      <point x="126" y="298"/>
      <point x="148" y="276"/>
      <point x="148" y="250" type="curve" smooth="yes"/>
      <point x="148" y="224"/>
      <point x="126" y="202"/>
      <point x="100" y="202" type="curve" smooth="yes"/>
      <point x="74" y="202"/>
      <point x="52" y="224"/>
    </contour>
  </outline>
</glyph>
<glyph name="uni2074" format="2">
  <advance width="400"/>
  <unicode hex="2074"/>
  <outline>
    <contour>
      <point x="252" y="650" type="curve" smooth="yes"/>
      <point x="252" y="676"/>
      <point x="274" y="698"/>
      <point x="300" y="698" type="curve" smooth="yes"/>
      <point x="326" y="698"/>
      <point x="348" y="676"/>
      <point x="348" y="650" type="curve" smooth="yes"/>
      <point x="348" y="624"/>
      <point x="326" y="602"/>
      <point x="300" y="602" type="curve" smooth="yes"/>
      <point x="274" y="602"/>
      <point x="252" y="624"/>
    </contour>
    <contour>
      <point x="152" y="550" type="curve" smooth="yes"/>
      <point x="152" y="576"/>
      <point x="174" y="598"/>
      <point x="200" y="598" type="curve" smooth="yes"/>
      <point x="226" y="598"/>
      <point x="248" y="576"/>
      <point x="248" y="550" type="curve" smooth="yes"/>
      <point x="248" y="524"/>
      <point x="226" y="502"/>
      <point x="200" y="502" type="curve" smooth="yes"/>
      <point x="174" y="502"/>
      <point x="152" y="524"/>
    </contour>
    <contour>
      <point x="252" y="550" type="curve" smooth="yes"/>
      <point x="252" y="576"/>
      <point x="274" y="598"/>
      <point x="300" y="598" type="curve" smooth="yes"/>
      <point x="326" y="598"/>
      <point x="348" y="576"/>
      <point x="348" y="550" type="curve" smooth="yes"/>
      <point x="348" y="524"/>
      <point x="326" y="502"/>
      <point x="300" y="502" type="curve" smooth="yes"/>
      <point x="274" y="502"/>
      <point x="252" y="524"/>
    </contour>
    <contour>
      <point x="52" y="450" type="curve" smooth="yes"/>
      <point x="52" y="476"/>
      <point x="74" y="498"/>
      <point x="100" y="498" type="curve" smooth="yes"/>
      <point x="126" y="498"/>
      <point x="148" y="476"/>
      <point x="148" y="450" type="curve" smooth="yes"/>
      <point x="148" y="424"/>
      <point x="126" y="402"/>
      <point x="100" y="402" type="curve" smooth="yes"/>
      <point x="74" y="402"/>
      <point x="52" y="424"/>
    </contour>
    <contour>
      <point x="252" y="450" type="curve" smooth="yes"/>
      <point x="252" y="476"/>
      <point x="274" y="498"/>
      <point x="300" y="498" type="curve" smooth="yes"/>
      <point x="326" y="498"/>
      <point x="348" y="476"/>
      <point x="348" y="450" type="curve" smooth="yes"/>
      <point x="348" y="424"/>
      <point x="326" y="402"/>
      <point x="300" y="402" type="curve" smooth="yes"/>
      <point x="274" y="402"/>
      <point x="252" y="424"/>
    </contour>
    <contour>
      <point x="52" y="350" type="curve" smooth="yes"/>
      <point x="52" y="376"/>
      <point x="74" y="398"/>
      <point x="100" y="398" type="curve" smooth="yes"/>
      <point x="126" y="398"/>
      <point x="148" y="376"/>
      <point x="148" y="350" type="curve" smooth="yes"/>
      <point x="148" y="324"/>
      <point x="126" y="302"/>
      <point x="100" y="302" type="curve" smooth="yes"/>
      <point x="74" y="302"/>
      <point x="52" y="324"/>
    </contour>
    <contour>
      <point x="152" y="350" type="curve" smooth="yes"/>
      <point x="152" y="376"/>
      <point x="174" y="398"/>
      <point x="200" y="398" type="curve" smooth="yes"/>
      <point x="226" y="398"/>
      <point x="248" y="376"/>
      <point x="248" y="350" type="curve" smooth="yes"/>
      <point x="248" y="324"/>
      <point x="226" y="302"/>
      <point x="200" y="302" type="curve" smooth="yes"/>
      <point x="174" y="302"/>
      <point x="152" y="324"/>
    </contour>
    <contour>
      <point x="252" y="350" type="curve" smooth="yes"/>
      <point x="252" y="376"/>
      <point x="274" y="398"/>
      <point x="300" y="398" type="curve" smooth="yes"/>
      <point x="326" y="398"/>
      <point x="348" y="376"/>
      <point x="348" y="350" type="curve" smooth="yes"/>
      <point x="348" y="324"/>
      <point x="326" y="302"/>
      <point x="300" y="302" type="curve" smooth="yes"/>
      <point x="274" y="302"/>
      <point x="252" y="324"/>
    </contour>
    <contour>
      <point x="252" y="250" type="curve" smooth="yes"/>
      <point x="252" y="276"/>
      <point x="274" y="298"/>
      <point x="300" y="298" type="curve" smooth="yes"/>
      <point x="326" y="298"/>
      <point x="348" y="276"/>
      <point x="348" y="250" type="curve" smooth="yes"/>
      <point x="348" y="224"/>
      <point x="326" y="202"/>
      <point x="300" y="202" type="curve" smooth="yes"/>
      <point x="274" y="202"/>
      <point x="252" y="224"/>
    </contour>
  </outline>
</glyph>
<glyph name="Euro" format="2">
  <advance width="600"/>
  <unicode hex="20AC"/>
  <outline>
    <contour>
      <point x="252" y="650" type="curve" smooth="yes"/>
      <point x="252" y="676"/>
      <point x="274" y="698"/>
      <point x="300" y="698" type="curve" smooth="yes"/>
      <point x="326" y="698"/>
      <point x="348" y="676"/>
      <point x="348" y="650" type="curve" smooth="yes"/>
      <point x="348" y="624"/>
      <point x="326" y="602"/>
      <point x="300" y="602" type="curve" smooth="yes"/>
      <point x="274" y="602"/>
      <point x="252" y="624"/>
    </contour>
    <contour>
      <point x="352" y="650" type="curve" smooth="yes"/>
      <point x="352" y="676"/>
      <point x="374" y="698"/>
      <point x="400" y="698" type="curve" smooth="yes"/>
      <point x="426" y="698"/>
      <point x="448" y="676"/>
      <point x="448" y="650" type="curve" smooth="yes"/>
      <point x="448" y="624"/>
      <point x="426" y="602"/>
      <point x="400" y="602" type="curve" smooth="yes"/>
      <point x="374" y="602"/>
      <point x="352" y="624"/>
    </contour>
    <contour>
      <point x="152" y="550" type="curve" smooth="yes"/>
      <point x="152" y="576"/>
      <point x="174" y="598"/>
      <point x="200" y="598" type="curve" smooth="yes"/>
      <point x="226" y="598"/>
      <point x="248" y="576"/>
      <point x="248" y="550" type="curve" smooth="yes"/>
      <point x="248" y="524"/>
      <point x="226" y="502"/>
      <point x="200" y="502" type="curve" smooth="yes"/>
      <point x="174" y="502"/>
      <point x="152" y="524"/>
    </contour>
    <contour>
      <point x="452" y="550" type="curve" smooth="yes"/>
      <point x="452" y="576"/>
      <point x="474" y="598"/>
      <point x="500" y="598" type="curve" smooth="yes"/>
      <point x="526" y="598"/>
      <point x="548" y="576"/>
      <point x="548" y="550" type="curve" smooth="yes"/>
      <point x="548" y="524"/>
      <point x="526" y="502"/>
      <point x="500" y="502" type="curve" smooth="yes"/>
      <point x="474" y="502"/>
      <point x="452" y="524"/>
    </contour>
    <contour>
      <point x="52" y="450" type="curve" smooth="yes"/>
      <point x="52" y="476"/>
      <point x="74" y="498"/>
      <point x="100" y="498" type="curve" smooth="yes"/>
      <point x="126" y="498"/>
      <point x="148" y="476"/>
      <point x="148" y="450" type="curve" smooth="yes"/>
      <point x="148" y="424"/>
      <point x="126" y="402"/>
      <point x="100" y="402" type="curve" smooth="yes"/>
      <point x="74" y="402"/>
      <point x="52" y="424"/>
    </contour>
    <contour>
      <point x="152" y="450" type="curve" smooth="yes"/>
      <point x="152" y="476"/>
      <point x="174" y="498"/>
      <point x="200" y="498" type="curve" smooth="yes"/>
      <point x="226" y="498"/>
      <point x="248" y="476"/>
      <point x="248" y="450" type="curve" smooth="yes"/>
      <point x="248" y="424"/>
      <point x="226" y="402"/>
      <point x="200" y="402" type="curve" smooth="yes"/>
      <point x="174" y="402"/>
      <point x="152" y="424"/>
    </contour>
    <contour>
      <point x="252" y="450" type="curve" smooth="yes"/>
      <point x="252" y="476"/>
      <point x="274" y="498"/>
      <point x="300" y="498" type="curve" smooth="yes"/>
      <point x="326" y="498"/>
      <point x="348" y="476"/>
      <point x="348" y="450" type="curve" smooth="yes"/>
      <point x="348" y="424"/>
      <point x="326" y="402"/>
      <point x="300" y="402" type="curve" smooth="yes"/>
      <point x="274" y="402"/>
      <point x="252" y="424"/>
    </contour>
    <contour>
      <point x="152" y="350" type="curve" smooth="yes"/>
      <point x="152" y="376"/>
      <point x="174" y="398"/>
      <point x="200" y="398" type="curve" smooth="yes"/>
      <point x="226" y="398"/>
      <point x="248" y="376"/>
      <point x="248" y="350" type="curve" smooth="yes"/>
      <point x="248" y="324"/>
      <point x="226" y="302"/>
      <point x="200" y="302" type="curve" smooth="yes"/>
      <point x="174" y="302"/>
      <point x="152" y="324"/>
    </contour>
    <contour>
      <point x="52" y="250" type="curve" smooth="yes"/>
      <point x="52" y="276"/>
      <point x="74" y="298"/>
      <point x="100" y="298" type="curve" smooth="yes"/>
      <point x="126" y="298"/>
      <point x="148" y="276"/>
      <point x="148" y="250" type="curve" smooth="yes"/>
      <point x="148" y="224"/>
      <point x="126" y="202"/>
      <point x="100" y="202" type="curve" smooth="yes"/>
      <point x="74" y="202"/>
      <point x="52" y="224"/>
    </contour>
    <contour>
      <point x="152" y="250" type="curve" smooth="yes"/>
      <point x="152" y="276"/>
      <point x="174" y="298"/>
      <point x="200" y="298" type="curve" smooth="yes"/>
      <point x="226" y="298"/>
      <point x="248" y="276"/>
      <point x="248" y="250" type="curve" smooth="yes"/>
      <point x="248" y="224"/>
      <point x="226" y="202"/>
      <point x="200" y="202" type="curve" smooth="yes"/>
      <point x="174" y="202"/>
      <point x="152" y="224"/>
    </contour>
    <contour>
      <point x="252" y="250" type="curve" smooth="yes"/>
      <point x="252" y="276"/>
      <point x="274" y="298"/>
      <point x="300" y="298" type="curve" smooth="yes"/>
      <point x="326" y="298"/>
      <point x="348" y="276"/>
      <point x="348" y="250" type="curve" smooth="yes"/>
      <point x="348" y="224"/>
      <point x="326" y="202"/>
      <point x="300" y="202" type="curve" smooth="yes"/>
      <point x="274" y="202"/>
      <point x="252" y="224"/>
    </contour>
    <contour>
      <point x="152" y="150" type="curve" smooth="yes"/>
      <point x="152" y="176"/>
      <point x="174" y="198"/>
      <point x="200" y="198" type="curve" smooth="yes"/>
      <point x="226" y="198"/>
      <point x="248" y="176"/>
      <point x="248" y="150" type="curve" smooth="yes"/>
      <point x="248" y="124"/>
      <point x="226" y="102"/>
      <point x="200" y="102" type="curve" smooth="yes"/>
      <point x="174" y="102"/>
      <point x="152" y="124"/>
    </contour>
    <contour>
      <point x="452" y="150" type="curve" smooth="yes"/>
      <point x="452" y="176"/>
      <point x="474" y="198"/>
      <point x="500" y="198" type="curve" smooth="yes"/>
      <point x="526" y="198"/>
      <point x="548" y="176"/>
      <point x="548" y="150" type="curve" smooth="yes"/>
      <point x="548" y="124"/>
      <point x="526" y="102"/>
      <point x="500" y="102" type="curve" smooth="yes"/>
      <point x="474" y="102"/>
      <point x="452" y="124"/>
    </contour>
    <contour>
      <point x="252" y="50" type="curve" smooth="yes"/>
      <point x="252" y="76"/>
      <point x="274" y="98"/>
      <point x="300" y="98" type="curve" smooth="yes"/>
      <point x="326" y="98"/>
      <point x="348" y="76"/>
      <point x="348" y="50" type="curve" smooth="yes"/>
      <point x="348" y="24"/>
      <point x="326" y="2"/>
      <point x="300" y="2" type="curve" smooth="yes"/>
      <point x="274" y="2"/>
      <point x="252" y="24"/>
    </contour>
    <contour>
      <point x="352" y="50" type="curve" smooth="yes"/>
      <point x="352" y="76"/>
      <point x="374" y="98"/>
      <point x="400" y="98" type="curve" smooth="yes"/>
      <point x="426" y="98"/>
      <point x="448" y="76"/>
      <point x="448" y="50" type="curve" smooth="yes"/>
      <point x="448" y="24"/>
      <point x="426" y="2"/>
      <point x="400" y="2" type="curve" smooth="yes"/>
      <point x="374" y="2"/>
      <point x="352" y="24"/>
    </contour>
  </outline>
</glyph>
<glyph name="greaterequal" format="2">
  <advance width="400"/>
  <unicode hex="2265"/>
  <outline>
    <contour>
      <point x="252" y="50" type="curve" smooth="yes"/>
      <point x="252" y="76"/>
      <point x="274" y="98"/>
      <point x="300" y="98" type="curve" smooth="yes"/>
      <point x="326" y="98"/>
      <point x="348" y="76"/>
      <point x="348" y="50" type="curve" smooth="yes"/>
      <point x="348" y="24"/>
      <point x="326" y="2"/>
      <point x="300" y="2" type="curve" smooth="yes"/>
      <point x="274" y="2"/>
      <point x="252" y="24"/>
    </contour>
    <contour>
      <point x="152" y="50" type="curve" smooth="yes"/>
      <point x="152" y="76"/>
      <point x="174" y="98"/>
      <point x="200" y="98" type="curve" smooth="yes"/>
      <point x="226" y="98"/>
      <point x="248" y="76"/>
      <point x="248" y="50" type="curve" smooth="yes"/>
      <point x="248" y="24"/>
      <point x="226" y="2"/>
      <point x="200" y="2" type="curve" smooth="yes"/>
      <point x="174" y="2"/>
      <point x="152" y="24"/>
    </contour>
    <contour>
      <point x="52" y="50" type="curve" smooth="yes"/>
      <point x="52" y="76"/>
      <point x="74" y="98"/>
      <point x="100" y="98" type="curve" smooth="yes"/>
      <point x="126" y="98"/>
      <point x="148" y="76"/>
      <point x="148" y="50" type="curve" smooth="yes"/>
      <point x="148" y="24"/>
      <point x="126" y="2"/>
      <point x="100" y="2" type="curve" smooth="yes"/>
      <point x="74" y="2"/>
      <point x="52" y="24"/>
    </contour>
    <component base="greater" yOffset="100"/>
  </outline>
</glyph>
<glyph name="uni25CC" format="2">
  <advance width="600"/>
  <unicode hex="25CC"/>
  <anchor x="550" y="450" name="marks_aboveright"/>
  <anchor x="400" y="0" name="ogonek"/>
  <anchor x="300" y="0" name="marks_below"/>
  <anchor x="300" y="600" name="marks_above"/>
  <outline>
    <contour>
      <point x="252" y="450" type="curve" smooth="yes"/>
      <point x="252" y="476"/>
      <point x="274" y="498"/>
      <point x="300" y="498" type="curve" smooth="yes"/>
      <point x="326" y="498"/>
      <point x="348" y="476"/>
      <point x="348" y="450" type="curve" smooth="yes"/>
      <point x="348" y="424"/>
      <point x="326" y="402"/>
      <point x="300" y="402" type="curve" smooth="yes"/>
      <point x="274" y="402"/>
      <point x="252" y="424"/>
    </contour>
    <contour>
      <point x="52" y="350" type="curve" smooth="yes"/>
      <point x="52" y="376"/>
      <point x="74" y="398"/>
      <point x="100" y="398" type="curve" smooth="yes"/>
      <point x="126" y="398"/>
      <point x="148" y="376"/>
      <point x="148" y="350" type="curve" smooth="yes"/>
      <point x="148" y="324"/>
      <point x="126" y="302"/>
      <point x="100" y="302" type="curve" smooth="yes"/>
      <point x="74" y="302"/>
      <point x="52" y="324"/>
    </contour>
    <contour>
      <point x="452" y="350" type="curve" smooth="yes"/>
      <point x="452" y="376"/>
      <point x="474" y="398"/>
      <point x="500" y="398" type="curve" smooth="yes"/>
      <point x="526" y="398"/>
      <point x="548" y="376"/>
      <point x="548" y="350" type="curve" smooth="yes"/>
      <point x="548" y="324"/>
      <point x="526" y="302"/>
      <point x="500" y="302" type="curve" smooth="yes"/>
      <point x="474" y="302"/>
      <point x="452" y="324"/>
    </contour>
    <contour>
      <point x="52" y="150" type="curve" smooth="yes"/>
      <point x="52" y="176"/>
      <point x="74" y="198"/>
      <point x="100" y="198" type="curve" smooth="yes"/>
      <point x="126" y="198"/>
      <point x="148" y="176"/>
      <point x="148" y="150" type="curve" smooth="yes"/>
      <point x="148" y="124"/>
      <point x="126" y="102"/>
      <point x="100" y="102" type="curve" smooth="yes"/>
      <point x="74" y="102"/>
      <point x="52" y="124"/>
    </contour>
    <contour>
      <point x="452" y="150" type="curve" smooth="yes"/>
      <point x="452" y="176"/>
      <point x="474" y="198"/>
      <point x="500" y="198" type="curve" smooth="yes"/>
      <point x="526" y="198"/>
      <point x="548" y="176"/>
      <point x="548" y="150" type="curve" smooth="yes"/>
      <point x="548" y="124"/>
      <point x="526" y="102"/>
      <point x="500" y="102" type="curve" smooth="yes"/>
      <point x="474" y="102"/>
      <point x="452" y="124"/>
    </contour>
    <contour>
      <point x="252" y="50" type="curve" smooth="yes"/>
      <point x="252" y="76"/>
      <point x="274" y="98"/>
      <point x="300" y="98" type="curve" smooth="yes"/>
      <point x="326" y="98"/>
      <point x="348" y="76"/>
      <point x="348" y="50" type="curve" smooth="yes"/>
      <point x="348" y="24"/>
      <point x="326" y="2"/>
      <point x="300" y="2" type="curve" smooth="yes"/>
      <point x="274" y="2"/>
      <point x="252" y="24"/>
    </contour>
  </outline>
</glyph>
<glyph name="periodcentered.loclCAT.case" format="2">
  <advance width="0"/>
  <outline>
    <contour>
      <point x="-248" y="350" type="curve" smooth="yes"/>
      <point x="-248" y="376"/>
      <point x="-226" y="398"/>
      <point x="-200" y="398" type="curve" smooth="yes"/>
      <point x="-174" y="398"/>
      <point x="-152" y="376"/>
      <point x="-152" y="350" type="curve" smooth="yes"/>
      <point x="-152" y="324"/>
      <point x="-174" y="302"/>
      <point x="-200" y="302" type="curve" smooth="yes"/>
      <point x="-226" y="302"/>
      <point x="-248" y="324"/>
    </contour>
  </outline>
</glyph>
<glyph name="periodcentered.loclCAT" format="2">
  <advance width="0"/>
  <outline>
    <contour>
      <point x="-48" y="350" type="curve" smooth="yes"/>
      <point x="-48" y="376"/>
      <point x="-26" y="398"/>
      <point x="0" y="398" type="curve" smooth="yes"/>
      <point x="26" y="398"/>
      <point x="48" y="376"/>
      <point x="48" y="350" type="curve" smooth="yes"/>
      <point x="48" y="324"/>
      <point x="26" y="302"/>
      <point x="0" y="302" type="curve" smooth="yes"/>
      <point x="-26" y="302"/>
      <point x="-48" y="324"/>
    </contour>
  </outline>
</glyph>
